<svg width="61" height="55" viewBox="0 0 61 55" fill="none" xmlns="http://www.w3.org/2000/svg">
<g clip-path="url(#clip0_153_2726)">
<path d="M30.5054 0.0639318C39.0938 0.0639318 47.6768 0.0639318 56.2652 0.0639318C59.0165 0.0639318 60.5 1.55287 60.5 4.30957C60.5 12.4664 60.5 20.6232 60.5 28.7746C60.5 30.6574 59.4265 32.1085 57.711 32.5563C57.2308 32.6804 56.7399 32.7127 56.2436 32.7127C53.4222 32.7127 50.6007 32.7127 47.7739 32.7127C46.9917 32.7127 46.9809 32.7289 46.9809 33.5058C46.9809 35.5935 46.9917 37.6813 46.9701 39.769C46.9647 40.2977 47.105 40.5351 47.6714 40.4811C48.0814 40.438 48.5022 40.4703 48.9122 40.4757C49.3006 40.4811 49.6027 40.6484 49.77 40.999C49.948 41.3659 49.921 41.7273 49.6728 42.0564C49.5542 42.2128 49.4193 42.3585 49.279 42.4987C47.6498 44.1279 46.0152 45.7626 44.3806 47.3864C43.5714 48.1902 43.1291 48.1902 42.336 47.4025C40.6691 45.7464 39.0129 44.0902 37.3513 42.4286C37.265 42.3477 37.1841 42.2614 37.1086 42.1697C36.8172 41.8244 36.704 41.4522 36.9143 41.026C37.1086 40.6268 37.443 40.4811 37.88 40.4649C39.3959 40.411 39.3959 40.4056 39.3959 38.8627C39.3959 37.0501 39.3851 35.2375 39.4013 33.4248C39.4067 32.9016 39.2503 32.6912 38.6946 32.6912C34.3519 32.7073 30.0091 32.7073 25.6664 32.6912C25.1755 32.6912 24.9651 32.8098 24.9705 33.3493C24.992 36.6563 24.992 39.9686 24.9705 43.2756C24.9651 43.7881 25.1593 43.9176 25.6286 43.9014C26.4756 43.8744 27.3279 43.896 28.1749 43.8906C28.655 43.8852 29.0219 44.0524 29.2215 44.511C29.4211 44.9749 29.2593 45.3579 28.9302 45.687C26.2922 48.3196 23.6595 50.9577 21.0161 53.5849C20.4767 54.119 19.948 54.119 19.4031 53.5795C16.7543 50.9577 14.1217 48.3196 11.4837 45.687C11.1546 45.3579 10.9928 44.9641 11.1978 44.5056C11.3974 44.0578 11.7696 43.8852 12.2497 43.8906C12.9618 43.896 13.6685 43.8798 14.3806 43.896C14.7691 43.9068 14.9525 43.7989 14.9525 43.3673C14.9417 40.001 14.9363 36.6293 14.9525 33.263C14.9525 32.7451 14.6989 32.6912 14.2889 32.6966C11.0737 32.7019 7.85303 32.7019 4.63778 32.6966C3.26752 32.6966 2.07529 32.292 1.22832 31.1375C0.758981 30.4955 0.510825 29.7726 0.510825 28.985C0.500035 20.5962 0.494641 12.1805 0.510825 3.7701C0.516219 1.67156 2.167 0.0963 4.33028 0.0693265C6.52053 0.0477476 8.71079 0.0639318 10.901 0.0639318C17.4394 0.0639318 23.9724 0.0639318 30.5054 0.0639318ZM30.5054 30.6789C39.11 30.6789 47.7146 30.6789 56.3191 30.6789C57.9052 30.6789 58.4608 30.1341 58.4608 28.5588C58.4608 20.4452 58.4608 12.3261 58.4608 4.21247C58.4608 2.65339 57.916 2.10853 56.3731 2.10853C39.1262 2.10853 21.8739 2.10853 4.62699 2.10853C3.10568 2.10853 2.54463 2.65879 2.54463 4.15852C2.54463 12.3153 2.54463 20.4667 2.54463 28.6235C2.54463 30.1125 3.12726 30.6789 4.63239 30.6789C13.2531 30.6789 21.8793 30.6789 30.5054 30.6789ZM25.7257 45.8812C25.2564 45.8812 24.8248 45.8812 24.3932 45.8812C23.2873 45.8812 23.0068 45.6007 23.0014 44.4786C23.0014 40.8156 22.9906 37.1526 23.0122 33.4896C23.0176 32.9069 22.8665 32.6912 22.2515 32.7073C20.7518 32.7451 19.2521 32.7181 17.7523 32.7181C16.9108 32.7181 16.9108 32.7181 16.9108 33.5705C16.9108 37.1148 16.9108 40.6591 16.9108 44.2035C16.9108 45.6978 16.7381 45.8758 15.26 45.8812C15.0604 45.8812 14.8446 45.8165 14.645 45.9675C14.6935 46.0431 14.7205 46.1024 14.7583 46.1402C16.4738 47.8557 18.1947 49.5604 19.8994 51.2867C20.1746 51.5619 20.331 51.4917 20.5684 51.2544C22.1976 49.5982 23.843 47.9528 25.4776 46.2966C25.5801 46.1995 25.7041 46.124 25.7257 45.8812ZM46.4576 42.5095C46.0854 42.4556 45.848 42.4556 45.6322 42.3855C45.0172 42.1751 44.9255 41.6518 44.9255 41.0907C44.9255 38.5336 44.9147 35.9711 44.9363 33.4141C44.9417 32.8638 44.7475 32.6858 44.2134 32.7073C43.5229 32.7397 42.8324 32.7451 42.1418 32.7073C41.5592 32.675 41.4028 32.9016 41.4081 33.4572C41.4351 35.955 41.4189 38.4581 41.4189 40.9613C41.4189 41.997 41.2949 42.1805 40.286 42.5635C41.0791 43.3457 41.8505 44.101 42.6166 44.8616C43.3448 45.5845 43.3395 45.5845 44.0785 44.8562C44.85 44.0956 45.616 43.3403 46.4576 42.5095Z" fill="#474747"/>
<path d="M40.955 16.3774C40.955 22.1336 36.24 26.8378 30.4784 26.827C24.7492 26.8216 20.0504 22.1174 20.045 16.3882C20.045 10.6159 24.7331 5.94944 30.5216 5.95484C36.2723 5.96563 40.955 10.6374 40.955 16.3774ZM22.0789 16.3936C22.0842 21.0978 25.785 24.7878 30.4946 24.7878C35.2096 24.7878 38.9104 21.0978 38.9157 16.3936C38.9211 11.6948 35.1448 7.90772 30.4676 7.92391C25.8174 7.94549 22.0789 11.7164 22.0789 16.3936Z" fill="#0092B0"/>
<path d="M11.8073 11.9971C14.2349 12.0025 16.2094 13.9877 16.1986 16.41C16.1878 18.8214 14.1648 20.8174 11.7641 20.7959C9.40666 20.7743 7.38904 18.7405 7.38904 16.3938C7.38904 13.9823 9.39048 11.9917 11.8073 11.9971ZM14.1594 16.3722C14.154 15.0073 13.102 13.9608 11.7641 13.9877C10.4532 14.0147 9.42824 15.0721 9.43363 16.3884C9.43903 17.7586 10.4532 18.7567 11.8397 18.7459C13.1668 18.7405 14.1648 17.7209 14.1594 16.3722Z" fill="#0092B0"/>
<path d="M49.2574 11.997C51.6311 12.0132 53.6218 14.0254 53.6164 16.3991C53.611 18.7728 51.5448 20.8228 49.1765 20.7958C46.7543 20.7688 44.796 18.7728 44.8068 16.3451C44.8122 13.9337 46.8136 11.9754 49.2574 11.997ZM51.5664 16.3775C51.5664 15.0612 50.5252 14.0038 49.2197 13.9877C47.898 13.9715 46.8082 15.0558 46.8029 16.3829C46.7975 17.683 47.8602 18.7404 49.1711 18.7458C50.5522 18.7566 51.5664 17.7532 51.5664 16.3775Z" fill="#0092B0"/>
<path d="M29.583 18.9671C29.9984 18.9671 30.4138 18.9725 30.8238 18.9671C31.4711 18.9563 31.8649 18.6434 31.8541 18.1579C31.8434 17.6885 31.4657 17.3972 30.8507 17.3864C30.5163 17.381 30.1818 17.3918 29.8473 17.381C28.504 17.3325 27.3981 16.3614 27.1769 15.0451C26.9611 13.772 27.6894 12.5042 28.941 12.0349C29.2809 11.9054 29.4967 11.7759 29.5722 11.3767C29.6531 10.9613 29.993 10.724 30.4407 10.7024C30.8831 10.6808 31.2607 10.8642 31.374 11.2796C31.5089 11.7651 31.8002 11.8245 32.2102 11.8029C32.4422 11.7921 32.6849 11.8029 32.9169 11.8407C33.5157 11.9432 33.8718 12.3532 33.8448 12.8765C33.8178 13.4105 33.424 13.7989 32.8252 13.8205C32.016 13.8475 31.2068 13.8313 30.3976 13.8367C30.198 13.8367 29.9984 13.8313 29.8095 13.8637C29.4319 13.9284 29.2107 14.1766 29.1676 14.5434C29.119 14.9157 29.3132 15.18 29.6639 15.3257C30.0847 15.4983 30.5217 15.4174 30.9532 15.4228C32.4206 15.4389 33.5481 16.3129 33.8178 17.6562C34.0876 19.0156 33.3431 20.2726 31.9351 20.8121C31.6653 20.9146 31.5251 21.0387 31.4603 21.3354C31.3578 21.8101 31.0234 22.0906 30.5324 22.1014C30.0415 22.1122 29.6747 21.8533 29.5722 21.3839C29.4859 20.9901 29.2755 20.9308 28.9464 20.9469C28.6928 20.9577 28.4339 20.9577 28.1749 20.9469C27.5815 20.92 27.1823 20.5423 27.1607 20.0083C27.1392 19.4526 27.5492 19.0264 28.1642 18.9941C28.6335 18.9509 29.1082 18.9671 29.583 18.9671Z" fill="#0092B0"/>
</g>
<defs>
<clipPath id="clip0_153_2726">
<rect width="60" height="53.9471" fill="white" transform="translate(0.5 0.0585938)"/>
</clipPath>
</defs>
</svg>
