<svg width="71" height="131" viewBox="0 0 71 131" fill="none" xmlns="http://www.w3.org/2000/svg">
<path opacity="0.3" fill-rule="evenodd" clip-rule="evenodd" d="M62.0885 5.55266C63.26 4.38113 63.26 2.48171 62.0885 1.31018C60.917 0.138652 59.0175 0.138649 57.846 1.31018C56.6745 2.48171 56.6745 4.38113 57.846 5.55266C59.0175 6.72419 60.917 6.72419 62.0885 5.55266ZM73.4022 16.8664C74.5737 15.6948 74.5737 13.7954 73.4022 12.6239C72.2307 11.4524 70.3312 11.4524 69.1597 12.6239C67.9882 13.7954 67.9882 15.6948 69.1597 16.8664C70.3312 18.0379 72.2307 18.0379 73.4022 16.8664ZM84.7159 28.1801C85.8874 27.0086 85.8874 25.1091 84.7159 23.9376C83.5444 22.7661 81.6449 22.7661 80.4734 23.9376C79.3019 25.1091 79.3019 27.0086 80.4734 28.1801C81.6449 29.3516 83.5444 29.3516 84.7159 28.1801ZM96.0296 39.4938C97.2011 38.3223 97.2011 36.4228 96.0296 35.2513C94.8581 34.0798 92.9586 34.0798 91.7871 35.2513C90.6156 36.4228 90.6156 38.3223 91.7871 39.4938C92.9586 40.6653 94.8581 40.6653 96.0296 39.4938ZM107.343 50.8075C108.515 49.636 108.515 47.7366 107.343 46.565C106.172 45.3935 104.272 45.3935 103.101 46.565C101.929 47.7365 101.929 49.636 103.101 50.8075C104.272 51.979 106.172 51.979 107.343 50.8075ZM118.657 62.1212C119.829 60.9497 119.829 59.0503 118.657 57.8787C117.485 56.7072 115.586 56.7072 114.415 57.8787C113.243 59.0503 113.243 60.9497 114.415 62.1212C115.586 63.2927 117.485 63.2927 118.657 62.1212ZM129.971 69.1924C131.142 70.364 131.142 72.2634 129.971 73.4349C128.799 74.6064 126.9 74.6064 125.728 73.4349C124.557 72.2634 124.557 70.3639 125.728 69.1924C126.9 68.0209 128.799 68.0209 129.971 69.1924ZM118.657 80.5062C119.829 81.6777 119.829 83.5771 118.657 84.7486C117.485 85.9202 115.586 85.9202 114.415 84.7486C113.243 83.5771 113.243 81.6777 114.415 80.5061C115.586 79.3346 117.485 79.3346 118.657 80.5062ZM107.343 96.0623C108.515 94.8908 108.515 92.9914 107.343 91.8198C106.172 90.6483 104.272 90.6483 103.101 91.8198C101.929 92.9914 101.929 94.8908 103.101 96.0623C104.272 97.2339 106.172 97.2339 107.343 96.0623ZM96.0296 103.134C97.2011 104.305 97.2011 106.205 96.0296 107.376C94.8581 108.548 92.9587 108.548 91.7871 107.376C90.6156 106.205 90.6156 104.305 91.7871 103.134C92.9587 101.962 94.8581 101.962 96.0296 103.134ZM84.7159 118.69C85.8874 117.518 85.8874 115.619 84.7159 114.447C83.5444 113.276 81.645 113.276 80.4734 114.447C79.3019 115.619 79.3019 117.518 80.4734 118.69C81.645 119.861 83.5444 119.861 84.7159 118.69ZM73.4022 125.761C74.5737 126.933 74.5737 128.832 73.4022 130.003C72.2307 131.175 70.3312 131.175 69.1597 130.003C67.9882 128.832 67.9882 126.933 69.1597 125.761C70.3312 124.589 72.2307 124.589 73.4022 125.761ZM107.343 69.1924C108.515 70.364 108.515 72.2634 107.343 73.4349C106.172 74.6064 104.272 74.6064 103.101 73.4349C101.929 72.2634 101.929 70.364 103.101 69.1924C104.272 68.0209 106.172 68.0209 107.343 69.1924ZM96.0296 84.7486C97.2011 83.5771 97.2011 81.6777 96.0296 80.5062C94.8581 79.3346 92.9587 79.3346 91.7871 80.5062C90.6156 81.6777 90.6156 83.5771 91.7871 84.7486C92.9587 85.9202 94.8581 85.9202 96.0296 84.7486ZM84.7159 91.8199C85.8874 92.9914 85.8874 94.8908 84.7159 96.0623C83.5444 97.2339 81.645 97.2339 80.4734 96.0623C79.3019 94.8908 79.3019 92.9914 80.4734 91.8198C81.645 90.6483 83.5444 90.6483 84.7159 91.8199ZM73.4022 107.376C74.5737 106.205 74.5737 104.305 73.4022 103.134C72.2307 101.962 70.3312 101.962 69.1597 103.134C67.9882 104.305 67.9882 106.205 69.1597 107.376C70.3312 108.548 72.2307 108.548 73.4022 107.376ZM62.0885 114.447C63.26 115.619 63.26 117.518 62.0885 118.69C60.9169 119.861 59.0175 119.861 57.846 118.69C56.6745 117.518 56.6745 115.619 57.846 114.447C59.0175 113.276 60.9169 113.276 62.0885 114.447ZM96.0296 57.8787C97.2011 59.0503 97.2011 60.9497 96.0296 62.1212C94.8581 63.2927 92.9587 63.2927 91.7871 62.1212C90.6156 60.9497 90.6156 59.0503 91.7871 57.8787C92.9587 56.7072 94.8581 56.7072 96.0296 57.8787ZM84.7159 73.4349C85.8874 72.2634 85.8874 70.364 84.7159 69.1924C83.5444 68.0209 81.6449 68.0209 80.4734 69.1924C79.3019 70.364 79.3019 72.2634 80.4734 73.4349C81.6449 74.6064 83.5444 74.6064 84.7159 73.4349ZM73.4022 80.5061C74.5737 81.6777 74.5737 83.5771 73.4022 84.7486C72.2307 85.9201 70.3312 85.9201 69.1597 84.7486C67.9882 83.5771 67.9882 81.6777 69.1597 80.5061C70.3312 79.3346 72.2307 79.3346 73.4022 80.5061ZM62.0885 96.0623C63.26 94.8908 63.26 92.9914 62.0885 91.8199C60.917 90.6483 59.0175 90.6483 57.846 91.8199C56.6745 92.9914 56.6745 94.8908 57.846 96.0623C59.0175 97.2339 60.917 97.2339 62.0885 96.0623ZM50.7748 103.134C51.9463 104.305 51.9463 106.205 50.7748 107.376C49.6033 108.548 47.7038 108.548 46.5323 107.376C45.3608 106.205 45.3608 104.305 46.5323 103.134C47.7038 101.962 49.6033 101.962 50.7748 103.134ZM84.7159 46.565C85.8874 47.7366 85.8874 49.636 84.7159 50.8075C83.5444 51.979 81.645 51.979 80.4734 50.8075C79.3019 49.636 79.3019 47.7365 80.4734 46.565C81.645 45.3935 83.5444 45.3935 84.7159 46.565ZM73.4022 62.1212C74.5737 60.9497 74.5737 59.0503 73.4022 57.8787C72.2307 56.7072 70.3312 56.7072 69.1597 57.8787C67.9882 59.0503 67.9882 60.9497 69.1597 62.1212C70.3312 63.2927 72.2307 63.2927 73.4022 62.1212ZM62.0885 69.1924C63.26 70.364 63.26 72.2634 62.0885 73.4349C60.917 74.6065 59.0175 74.6065 57.846 73.4349C56.6745 72.2634 56.6745 70.364 57.846 69.1924C59.0175 68.0209 60.917 68.0209 62.0885 69.1924ZM50.7748 84.7486C51.9463 83.5771 51.9463 81.6777 50.7748 80.5062C49.6032 79.3346 47.7038 79.3346 46.5323 80.5061C45.3608 81.6777 45.3608 83.5771 46.5323 84.7486C47.7038 85.9202 49.6032 85.9202 50.7748 84.7486ZM39.4611 91.8198C40.6326 92.9914 40.6326 94.8908 39.4611 96.0623C38.2895 97.2339 36.3901 97.2339 35.2186 96.0623C34.0471 94.8908 34.0471 92.9914 35.2186 91.8198C36.3901 90.6483 38.2895 90.6483 39.4611 91.8198ZM73.4022 35.2513C74.5737 36.4228 74.5737 38.3223 73.4022 39.4938C72.2307 40.6653 70.3312 40.6653 69.1597 39.4938C67.9882 38.3223 67.9882 36.4228 69.1597 35.2513C70.3312 34.0798 72.2307 34.0798 73.4022 35.2513ZM62.0885 50.8075C63.26 49.636 63.26 47.7365 62.0885 46.565C60.917 45.3935 59.0175 45.3935 57.846 46.565C56.6745 47.7365 56.6745 49.636 57.846 50.8075C59.0175 51.979 60.917 51.979 62.0885 50.8075ZM50.7748 57.8787C51.9463 59.0503 51.9463 60.9497 50.7748 62.1212C49.6033 63.2927 47.7038 63.2927 46.5323 62.1212C45.3608 60.9497 45.3608 59.0503 46.5323 57.8787C47.7038 56.7072 49.6033 56.7072 50.7748 57.8787ZM39.4611 73.4349C40.6326 72.2634 40.6326 70.364 39.4611 69.1924C38.2895 68.0209 36.3901 68.0209 35.2186 69.1924C34.0471 70.364 34.0471 72.2634 35.2186 73.4349C36.3901 74.6064 38.2895 74.6064 39.4611 73.4349ZM28.1474 80.5061C29.3189 81.6777 29.3189 83.5771 28.1474 84.7486C26.9758 85.9201 25.0764 85.9201 23.9049 84.7486C22.7333 83.5771 22.7333 81.6777 23.9049 80.5061C25.0764 79.3346 26.9758 79.3346 28.1474 80.5061ZM62.0885 23.9376C63.26 25.1091 63.26 27.0085 62.0885 28.1801C60.917 29.3516 59.0175 29.3516 57.846 28.1801C56.6745 27.0085 56.6745 25.1091 57.846 23.9376C59.0175 22.7661 60.917 22.7661 62.0885 23.9376ZM50.7748 39.4938C51.9463 38.3223 51.9463 36.4228 50.7748 35.2513C49.6032 34.0798 47.7038 34.0798 46.5323 35.2513C45.3608 36.4228 45.3608 38.3223 46.5323 39.4938C47.7038 40.6653 49.6032 40.6653 50.7748 39.4938ZM39.4611 46.565C40.6326 47.7365 40.6326 49.636 39.4611 50.8075C38.2895 51.979 36.3901 51.979 35.2186 50.8075C34.0471 49.636 34.0471 47.7365 35.2186 46.565C36.3901 45.3935 38.2895 45.3935 39.4611 46.565ZM28.1474 62.1212C29.3189 60.9497 29.3189 59.0503 28.1474 57.8787C26.9758 56.7072 25.0764 56.7072 23.9049 57.8787C22.7333 59.0503 22.7333 60.9497 23.9049 62.1212C25.0764 63.2927 26.9758 63.2927 28.1474 62.1212ZM16.8336 69.1924C18.0052 70.364 18.0052 72.2634 16.8336 73.4349C15.6621 74.6064 13.7627 74.6064 12.5912 73.4349C11.4196 72.2634 11.4196 70.364 12.5912 69.1924C13.7627 68.0209 15.6621 68.0209 16.8336 69.1924ZM50.7748 12.6239C51.9463 13.7954 51.9463 15.6948 50.7748 16.8664C49.6032 18.0379 47.7038 18.0379 46.5323 16.8664C45.3608 15.6948 45.3608 13.7954 46.5323 12.6239C47.7038 11.4524 49.6032 11.4524 50.7748 12.6239ZM39.4611 28.1801C40.6326 27.0086 40.6326 25.1091 39.4611 23.9376C38.2895 22.7661 36.3901 22.7661 35.2186 23.9376C34.0471 25.1091 34.0471 27.0086 35.2186 28.1801C36.3901 29.3516 38.2895 29.3516 39.4611 28.1801ZM28.1474 35.2513C29.3189 36.4228 29.3189 38.3223 28.1474 39.4938C26.9758 40.6653 25.0764 40.6653 23.9049 39.4938C22.7333 38.3223 22.7333 36.4228 23.9049 35.2513C25.0764 34.0798 26.9758 34.0798 28.1474 35.2513ZM16.8336 50.8075C18.0052 49.636 18.0052 47.7365 16.8336 46.565C15.6621 45.3935 13.7627 45.3935 12.5912 46.565C11.4196 47.7365 11.4196 49.636 12.5912 50.8075C13.7627 51.979 15.6621 51.979 16.8336 50.8075ZM5.51994 57.8787C6.69147 59.0503 6.69147 60.9497 5.51994 62.1212C4.34842 63.2927 2.44899 63.2927 1.27746 62.1212C0.105934 60.9497 0.105934 59.0503 1.27746 57.8787C2.44899 56.7072 4.34842 56.7072 5.51994 57.8787Z" fill="#57586E"/>
</svg>
