<svg width="70" height="131" viewBox="0 0 70 131" fill="none" xmlns="http://www.w3.org/2000/svg">
<path opacity="0.3" fill-rule="evenodd" clip-rule="evenodd" d="M1.09044 5.55278C2.26196 4.38125 2.26196 2.48183 1.09044 1.3103C-0.0810959 0.138774 -1.98052 0.138771 -3.15204 1.3103C-4.32358 2.48183 -4.32358 4.38125 -3.15205 5.55279C-1.98052 6.72431 -0.0810963 6.72431 1.09044 5.55278ZM12.4041 16.8665C13.5757 15.695 13.5757 13.7955 12.4041 12.624C11.2326 11.4525 9.33319 11.4525 8.16166 12.624C6.99013 13.7955 6.99013 15.695 8.16166 16.8665C9.33319 18.038 11.2326 18.038 12.4041 16.8665ZM23.7179 28.1802C24.8894 27.0087 24.8894 25.1093 23.7179 23.9377C22.5463 22.7662 20.6469 22.7662 19.4754 23.9377C18.3038 25.1093 18.3038 27.0087 19.4754 28.1802C20.6469 29.3517 22.5463 29.3517 23.7179 28.1802ZM35.0316 39.4939C36.2031 38.3224 36.2031 36.423 35.0316 35.2514C33.86 34.0799 31.9606 34.0799 30.7891 35.2514C29.6175 36.423 29.6175 38.3224 30.7891 39.4939C31.9606 40.6654 33.86 40.6654 35.0316 39.4939ZM46.3453 50.8076C47.5168 49.6361 47.5168 47.7367 46.3453 46.5651C45.1737 45.3936 43.2743 45.3936 42.1028 46.5651C40.9313 47.7367 40.9313 49.6361 42.1028 50.8076C43.2743 51.9792 45.1737 51.9792 46.3453 50.8076ZM57.659 62.1213C58.8305 60.9498 58.8305 59.0504 57.659 57.8789C56.4874 56.7073 54.588 56.7073 53.4165 57.8788C52.245 59.0504 52.245 60.9498 53.4165 62.1213C54.588 63.2929 56.4874 63.2929 57.659 62.1213ZM68.9727 69.1925C70.1442 70.3641 70.1442 72.2635 68.9727 73.435C67.8012 74.6066 65.9017 74.6066 64.7302 73.435C63.5587 72.2635 63.5587 70.3641 64.7302 69.1925C65.9017 68.021 67.8012 68.021 68.9727 69.1925ZM57.659 80.5063C58.8305 81.6778 58.8305 83.5772 57.659 84.7488C56.4874 85.9203 54.588 85.9203 53.4165 84.7488C52.245 83.5772 52.245 81.6778 53.4165 80.5063C54.588 79.3347 56.4874 79.3347 57.659 80.5063ZM46.3453 96.0625C47.5168 94.8909 47.5168 92.9915 46.3453 91.82C45.1737 90.6484 43.2743 90.6484 42.1028 91.82C40.9313 92.9915 40.9313 94.8909 42.1028 96.0625C43.2743 97.234 45.1737 97.234 46.3453 96.0625ZM35.0316 103.134C36.2031 104.305 36.2031 106.205 35.0316 107.376C33.86 108.548 31.9606 108.548 30.7891 107.376C29.6176 106.205 29.6176 104.305 30.7891 103.134C31.9606 101.962 33.86 101.962 35.0316 103.134ZM23.7179 118.69C24.8894 117.518 24.8894 115.619 23.7179 114.447C22.5463 113.276 20.6469 113.276 19.4754 114.447C18.3038 115.619 18.3038 117.518 19.4754 118.69C20.6469 119.861 22.5463 119.861 23.7179 118.69ZM12.4041 125.761C13.5757 126.933 13.5757 128.832 12.4041 130.004C11.2326 131.175 9.33319 131.175 8.16166 130.004C6.99013 128.832 6.99013 126.933 8.16166 125.761C9.33319 124.59 11.2326 124.59 12.4041 125.761ZM46.3453 69.1926C47.5168 70.3641 47.5168 72.2635 46.3453 73.435C45.1737 74.6066 43.2743 74.6066 42.1028 73.435C40.9313 72.2635 40.9313 70.3641 42.1028 69.1926C43.2743 68.021 45.1737 68.021 46.3453 69.1926ZM35.0316 84.7488C36.2031 83.5772 36.2031 81.6778 35.0316 80.5063C33.86 79.3347 31.9606 79.3347 30.7891 80.5063C29.6176 81.6778 29.6176 83.5772 30.7891 84.7488C31.9606 85.9203 33.86 85.9203 35.0316 84.7488ZM23.7179 91.82C24.8894 92.9915 24.8894 94.8909 23.7179 96.0625C22.5463 97.234 20.6469 97.234 19.4754 96.0625C18.3038 94.8909 18.3038 92.9915 19.4754 91.82C20.6469 90.6484 22.5463 90.6484 23.7179 91.82ZM12.4041 107.376C13.5757 106.205 13.5757 104.305 12.4041 103.134C11.2326 101.962 9.33319 101.962 8.16165 103.134C6.99013 104.305 6.99013 106.205 8.16166 107.376C9.33319 108.548 11.2326 108.548 12.4041 107.376ZM1.09043 114.447C2.26196 115.619 2.26196 117.518 1.09043 118.69C-0.0810986 119.861 -1.98052 119.861 -3.15205 118.69C-4.32358 117.518 -4.32358 115.619 -3.15205 114.447C-1.98052 113.276 -0.081099 113.276 1.09043 114.447ZM35.0316 57.8788C36.2031 59.0504 36.2031 60.9498 35.0316 62.1213C33.86 63.2929 31.9606 63.2929 30.7891 62.1213C29.6175 60.9498 29.6175 59.0504 30.7891 57.8788C31.9606 56.7073 33.86 56.7073 35.0316 57.8788ZM23.7179 73.435C24.8894 72.2635 24.8894 70.3641 23.7179 69.1926C22.5463 68.021 20.6469 68.021 19.4754 69.1926C18.3038 70.3641 18.3038 72.2635 19.4754 73.435C20.6469 74.6066 22.5463 74.6066 23.7179 73.435ZM12.4042 80.5063C13.5757 81.6778 13.5757 83.5772 12.4041 84.7487C11.2326 85.9203 9.3332 85.9203 8.16167 84.7487C6.99013 83.5772 6.99014 81.6778 8.16166 80.5063C9.3332 79.3347 11.2326 79.3347 12.4042 80.5063ZM1.09044 96.0625C2.26196 94.8909 2.26197 92.9915 1.09044 91.82C-0.0810959 90.6485 -1.98052 90.6485 -3.15205 91.82C-4.32357 92.9915 -4.32358 94.8909 -3.15204 96.0625C-1.98052 97.234 -0.0810946 97.234 1.09044 96.0625ZM-10.2233 103.134C-9.05174 104.305 -9.05174 106.205 -10.2233 107.376C-11.3948 108.548 -13.2942 108.548 -14.4657 107.376C-15.6373 106.205 -15.6373 104.305 -14.4657 103.134C-13.2942 101.962 -11.3948 101.962 -10.2233 103.134ZM23.7179 46.5651C24.8894 47.7367 24.8894 49.6361 23.7179 50.8076C22.5463 51.9792 20.6469 51.9792 19.4754 50.8076C18.3038 49.6361 18.3038 47.7367 19.4754 46.5651C20.6469 45.3936 22.5463 45.3936 23.7179 46.5651ZM12.4041 62.1213C13.5757 60.9498 13.5757 59.0504 12.4041 57.8788C11.2326 56.7073 9.33319 56.7073 8.16166 57.8788C6.99013 59.0504 6.99013 60.9498 8.16166 62.1213C9.33319 63.2929 11.2326 63.2929 12.4041 62.1213ZM1.09045 69.1926C2.26197 70.3641 2.26197 72.2635 1.09045 73.435C-0.0810823 74.6066 -1.98051 74.6066 -3.15204 73.435C-4.32357 72.2635 -4.32357 70.3641 -3.15204 69.1926C-1.98051 68.021 -0.0810823 68.021 1.09045 69.1926ZM-10.2233 84.7488C-9.05175 83.5772 -9.05174 81.6778 -10.2233 80.5063C-11.3948 79.3347 -13.2942 79.3347 -14.4658 80.5063C-15.6373 81.6778 -15.6373 83.5772 -14.4658 84.7488C-13.2942 85.9203 -11.3948 85.9203 -10.2233 84.7488ZM-21.537 91.82C-20.3655 92.9915 -20.3655 94.8909 -21.537 96.0624C-22.7085 97.234 -24.6079 97.234 -25.7795 96.0624C-26.951 94.8909 -26.951 92.9915 -25.7795 91.82C-24.6079 90.6484 -22.7085 90.6484 -21.537 91.82ZM12.4042 35.2514C13.5757 36.423 13.5757 38.3224 12.4042 39.4939C11.2326 40.6654 9.3332 40.6654 8.16167 39.4939C6.99014 38.3224 6.99014 36.423 8.16167 35.2514C9.3332 34.0799 11.2326 34.0799 12.4042 35.2514ZM1.09043 50.8076C2.26196 49.6361 2.26196 47.7367 1.09043 46.5651C-0.0810932 45.3936 -1.98052 45.3936 -3.15205 46.5651C-4.32358 47.7367 -4.32358 49.6361 -3.15205 50.8076C-1.98052 51.9791 -0.0810932 51.9791 1.09043 50.8076ZM-10.2233 57.8788C-9.05174 59.0504 -9.05174 60.9498 -10.2233 62.1213C-11.3948 63.2929 -13.2942 63.2929 -14.4657 62.1213C-15.6373 60.9498 -15.6373 59.0504 -14.4657 57.8789C-13.2942 56.7073 -11.3948 56.7073 -10.2233 57.8788ZM-21.537 73.435C-20.3655 72.2635 -20.3655 70.3641 -21.537 69.1926C-22.7085 68.021 -24.6079 68.021 -25.7795 69.1926C-26.951 70.3641 -26.951 72.2635 -25.7795 73.435C-24.6079 74.6066 -22.7085 74.6066 -21.537 73.435ZM-32.8507 80.5063C-31.6792 81.6778 -31.6792 83.5772 -32.8507 84.7487C-34.0222 85.9203 -35.9216 85.9203 -37.0932 84.7487C-38.2647 83.5772 -38.2647 81.6778 -37.0932 80.5063C-35.9216 79.3347 -34.0222 79.3347 -32.8507 80.5063ZM1.09044 23.9377C2.26197 25.1092 2.26197 27.0087 1.09045 28.1802C-0.0810878 29.3517 -1.98051 29.3517 -3.15204 28.1802C-4.32357 27.0087 -4.32357 25.1092 -3.15204 23.9377C-1.98051 22.7662 -0.0810864 22.7662 1.09044 23.9377ZM-10.2233 39.4939C-9.05174 38.3224 -9.05174 36.423 -10.2233 35.2514C-11.3948 34.0799 -13.2942 34.0799 -14.4658 35.2514C-15.6373 36.423 -15.6373 38.3224 -14.4658 39.4939C-13.2942 40.6654 -11.3948 40.6654 -10.2233 39.4939ZM-21.537 46.5651C-20.3654 47.7367 -20.3654 49.6361 -21.537 50.8076C-22.7085 51.9791 -24.6079 51.9791 -25.7795 50.8076C-26.951 49.6361 -26.951 47.7367 -25.7795 46.5651C-24.6079 45.3936 -22.7085 45.3936 -21.537 46.5651ZM-32.8507 62.1213C-31.6792 60.9498 -31.6792 59.0504 -32.8507 57.8788C-34.0222 56.7073 -35.9216 56.7073 -37.0932 57.8788C-38.2647 59.0504 -38.2647 60.9498 -37.0932 62.1213C-35.9216 63.2929 -34.0222 63.2929 -32.8507 62.1213ZM-44.1644 69.1926C-42.9929 70.3641 -42.9929 72.2635 -44.1644 73.435C-45.3359 74.6066 -47.2354 74.6066 -48.4069 73.435C-49.5784 72.2635 -49.5784 70.3641 -48.4069 69.1926C-47.2354 68.021 -45.3359 68.021 -44.1644 69.1926ZM-10.2233 12.624C-9.05175 13.7955 -9.05175 15.695 -10.2233 16.8665C-11.3948 18.038 -13.2942 18.038 -14.4658 16.8665C-15.6373 15.695 -15.6373 13.7955 -14.4658 12.624C-13.2942 11.4525 -11.3948 11.4525 -10.2233 12.624ZM-21.537 28.1802C-20.3655 27.0087 -20.3655 25.1093 -21.537 23.9377C-22.7085 22.7662 -24.6079 22.7662 -25.7795 23.9377C-26.951 25.1093 -26.951 27.0087 -25.7795 28.1802C-24.6079 29.3517 -22.7085 29.3517 -21.537 28.1802ZM-32.8507 35.2514C-31.6792 36.423 -31.6792 38.3224 -32.8507 39.4939C-34.0222 40.6654 -35.9216 40.6655 -37.0932 39.4939C-38.2647 38.3224 -38.2647 36.423 -37.0932 35.2514C-35.9216 34.0799 -34.0222 34.0799 -32.8507 35.2514ZM-44.1644 50.8076C-42.9929 49.6361 -42.9929 47.7367 -44.1644 46.5651C-45.3359 45.3936 -47.2353 45.3936 -48.4069 46.5651C-49.5784 47.7367 -49.5784 49.6361 -48.4069 50.8076C-47.2354 51.9791 -45.3359 51.9791 -44.1644 50.8076ZM-55.4781 57.8788C-54.3066 59.0504 -54.3066 60.9498 -55.4781 62.1213C-56.6496 63.2929 -58.5491 63.2929 -59.7206 62.1213C-60.8921 60.9498 -60.8921 59.0504 -59.7206 57.8788C-58.5491 56.7073 -56.6496 56.7073 -55.4781 57.8788Z" fill="#57586E"/>
</svg>
