<svg width="31" height="31" viewBox="0 0 31 31" fill="none" xmlns="http://www.w3.org/2000/svg">
<path d="M23.476 0.553711H6.68588C3.04308 0.553711 0.0802002 3.4969 0.0802002 7.12275V23.9085C0.0802002 27.5504 3.04308 30.5387 6.68588 30.5387H23.476C27.1028 30.5387 30.0729 27.5504 30.0729 23.9085V7.12275C30.0729 3.4969 27.1028 0.553711 23.476 0.553711Z" fill="#FEFEFE"/>
<path fill-rule="evenodd" clip-rule="evenodd" d="M6.68585 0.374512H23.476C27.1027 0.374512 30.0802 3.35118 30.0802 6.97703V23.7628C30.0802 27.4046 27.1027 30.3799 23.476 30.3799H6.68585C3.04304 30.3799 0.0816193 27.4032 0.0816193 23.7628V6.97703C0.0816193 3.35118 3.0445 0.374512 6.68585 0.374512Z" fill="url(#paint0_linear_1_8901)"/>
<path fill-rule="evenodd" clip-rule="evenodd" d="M16.5238 11.9783V10.5285C16.5238 9.8342 16.9926 9.66681 17.3245 9.66681C17.6419 9.66681 19.3498 9.66681 19.3498 9.66681V6.56934H16.5543C13.4561 6.56934 12.7601 8.86624 12.7601 10.3466V11.9783H10.962V14.1544V15.5896H12.7761C12.7761 19.6841 12.7761 24.6098 12.7761 24.6098H16.3884C16.3884 24.6098 16.3884 19.6244 16.3884 15.5896H19.063L19.1838 14.1689L19.3949 11.9783H16.5238Z" fill="#FEFEFE"/>
<defs>
<linearGradient id="paint0_linear_1_8901" x1="15.0811" y1="2.30001" x2="15.0811" y2="27.73" gradientUnits="userSpaceOnUse">
<stop stop-color="#4E6ABD"/>
<stop offset="1" stop-color="#3E51A0"/>
</linearGradient>
</defs>
</svg>
