<svg width="127" height="103" viewBox="0 0 127 103" fill="none" xmlns="http://www.w3.org/2000/svg">
<g clip-path="url(#clip0_75_2882)">
<path d="M78.2709 20.4642C78.3596 15.5992 79.9929 11.9177 82.4998 8.59378C83.594 7.14335 84.7496 5.7314 85.9734 4.39185C86.8834 3.39624 86.4921 2.89391 85.5162 2.45493C84.2537 1.88472 82.9911 1.92319 81.7286 2.45946C80.0816 3.15865 78.7304 4.28776 77.6771 5.71103C75.5866 8.53721 73.5847 11.429 71.567 14.3095C70.9141 15.2417 70.4295 16.2645 70.2385 17.414C70.1338 18.043 69.7767 18.5386 69.1329 18.4661C68.3344 18.3756 68.2548 17.6651 68.3071 17.0089C68.3958 15.9115 68.8849 14.9498 69.4127 14.0176C69.672 13.556 69.9223 13.1374 69.4036 12.6893C68.7985 12.1667 68.2867 11.5082 67.4973 11.2615C67.4086 11.2344 67.1447 11.5625 67.0673 11.7684C66.51 13.2347 65.4841 14.1714 64.0123 14.5516C63.2388 14.7507 63.1069 15.2463 63.0705 15.9432C62.9636 18.043 61.7647 19.3305 59.8721 19.8261C59.0873 20.032 58.9485 20.3578 58.8188 21.0502C58.4639 22.9532 57.6382 24.5281 55.5658 24.9557C54.8242 25.1096 54.831 25.6481 54.7674 26.2319C54.6195 27.5398 54.1372 28.7617 53.0248 29.4495C51.8988 30.1487 52.2173 30.5266 53.0294 31.1738C56.4189 33.8755 60.1496 35.921 64.2056 37.3601C65.4317 37.7946 66.5532 38.4055 67.6451 39.1205C68.2298 39.5029 68.4641 39.9374 68.1934 40.5008C67.8408 41.2294 67.2243 41.0439 66.5919 40.8108C57.8293 37.6045 50.3337 32.3708 43.6161 25.8834C42.8973 25.191 42.0511 24.6321 41.3686 23.9058C39.2553 21.6634 39.617 18.4729 42.2626 17.0067C43.2067 16.484 43.4478 16.002 43.3636 14.9906C43.1885 12.9043 44.219 11.4629 46.057 10.6913C46.7804 10.3859 47.0853 10.1008 47.1217 9.2364C47.2331 6.6184 48.3159 5.28111 50.816 4.77199C51.6759 4.59776 51.826 4.26061 52.0148 3.48901C52.8883 -0.111022 56.4439 -1.09984 59.2283 1.34619C62.7884 4.47783 66.4304 7.51444 70.0019 10.6325C70.7548 11.291 71.1962 11.248 71.7671 10.4266C73.198 8.36071 74.6721 6.3265 76.1712 4.31265C77.5111 2.51377 79.2035 1.14706 81.3169 0.422989C84.0626 -0.518316 86.4239 0.312114 88.5076 2.21735C89.4062 3.03872 88.9808 3.77864 88.3757 4.51177C86.9766 6.20205 85.5685 7.88327 84.1877 9.58939C82.0039 12.2843 80.73 15.3956 80.2818 18.8486C80.0657 20.5026 80.2204 22.1318 80.9961 23.6501C81.326 24.2927 81.3442 24.9037 80.6276 25.2544C79.861 25.63 79.4925 25.0689 79.1967 24.476C78.4711 23.0324 78.2163 21.4914 78.2709 20.4642ZM61.2347 15.5698C61.2097 15.1263 61.2051 14.6579 60.8684 14.3298C58.1841 11.7164 55.3861 9.23414 52.3811 7.01438C51.4529 6.32876 50.4111 6.74058 49.7081 7.55517C48.9256 8.46027 48.805 9.66861 49.6604 10.4922C52.3105 13.0469 55.0062 15.5811 58.059 17.6244C59.5217 18.5996 61.2688 17.3574 61.2347 15.5698ZM56.2869 1.99107C55.0858 2.0318 54.4125 2.56355 54.0076 3.532C53.5321 4.66564 54.0098 5.5187 54.7946 6.20884C56.9421 8.1005 59.1145 9.96271 61.3052 11.8023C62.4745 12.7844 63.7415 13.2007 64.8471 11.7458C65.9072 10.3519 65.3408 9.14815 64.1806 8.1367C62.1651 6.38081 60.1473 4.62717 58.0977 2.90975C57.5381 2.44136 56.9557 1.90961 56.2869 1.99107ZM56.8374 20.5049C56.8625 20.1225 56.7556 19.5251 56.3165 19.1427C53.8233 16.975 51.3437 14.7847 48.7709 12.7188C47.7359 11.8883 46.5848 12.2888 45.8136 13.289C45.0129 14.3276 45.1289 15.5155 46.0798 16.3663C48.4524 18.4888 50.8524 20.5886 53.357 22.5436C54.8151 23.6863 56.7692 22.5685 56.8374 20.5049ZM52.7519 25.9626C52.7883 25.3562 52.5994 24.7973 52.1649 24.4217C49.9993 22.5504 47.8314 20.6769 45.6089 18.8757C44.567 18.0317 43.466 18.2738 42.6493 19.274C41.8122 20.299 41.9146 21.5141 42.8268 22.3581C44.931 24.3063 47.0784 26.2229 49.3624 27.9403C50.8205 29.0377 52.7428 27.809 52.7519 25.9626Z" fill="#FBFDFD"/>
<path d="M3 97.1838C3 97.1114 3.02047 97.0639 3.05915 97.0413C3.09782 97.0186 3.13877 97.0073 3.17744 97.0073H4.52414C5.56146 97.0073 6.08239 97.4961 6.08239 98.4736V100.616C6.08239 100.768 6.05054 100.917 5.98912 101.064C5.9277 101.211 5.83444 101.345 5.70705 101.463C5.57966 101.58 5.42269 101.675 5.23161 101.748C5.04052 101.82 4.81304 101.856 4.54916 101.856H3.17744C3.13877 101.856 3.09782 101.843 3.05915 101.818C3.02047 101.793 3 101.75 3 101.689V97.1838ZM5.72752 98.4736C5.72752 98.0934 5.62743 97.8151 5.42952 97.6364C5.22933 97.4576 4.92905 97.3694 4.52414 97.3694H3.35487V101.512H4.54916C4.6902 101.512 4.82896 101.492 4.97 101.454C5.11104 101.415 5.23616 101.356 5.3499 101.282C5.46136 101.207 5.55236 101.112 5.62288 101.001C5.6934 100.89 5.72752 100.761 5.72752 100.616V98.4736Z" fill="white"/>
<path d="M9.14453 97.1769C9.14453 97.1203 9.16273 97.0796 9.19912 97.0525C9.23552 97.0253 9.27419 97.0095 9.31742 97.0095C9.36064 97.0095 9.39931 97.023 9.43571 97.0525C9.4721 97.0796 9.4903 97.1226 9.4903 97.1769V101.689C9.4903 101.745 9.4721 101.786 9.43571 101.811C9.39931 101.836 9.36064 101.849 9.31742 101.849C9.27419 101.849 9.23552 101.836 9.19912 101.806C9.16273 101.779 9.14453 101.739 9.14453 101.689V97.1769Z" fill="white"/>
<path d="M12.5113 101.177C12.484 101.128 12.4795 101.08 12.5022 101.039C12.525 100.996 12.5545 100.967 12.5955 100.947C12.6342 100.926 12.6774 100.922 12.7229 100.931C12.7684 100.94 12.8048 100.972 12.8321 101.028C12.8594 101.078 12.9026 101.134 12.9617 101.196C13.0209 101.257 13.0959 101.313 13.1847 101.368C13.2734 101.422 13.3757 101.465 13.4918 101.501C13.6078 101.537 13.7374 101.555 13.883 101.555C13.9445 101.555 14.0241 101.542 14.1196 101.517C14.2152 101.492 14.3107 101.449 14.4062 101.388C14.5018 101.327 14.5882 101.241 14.6679 101.128C14.7475 101.017 14.7998 100.872 14.8271 100.693C14.8544 100.465 14.7907 100.259 14.6337 100.073C14.4768 99.8899 14.2106 99.7067 13.833 99.5302C13.6032 99.4238 13.3962 99.3243 13.2097 99.2292C13.0254 99.1342 12.8685 99.0346 12.7433 98.9283C12.6182 98.8219 12.5204 98.7065 12.4522 98.5798C12.3839 98.4554 12.3521 98.306 12.3521 98.1318C12.3521 97.9372 12.3907 97.7652 12.4704 97.6204C12.55 97.4756 12.6524 97.3557 12.782 97.2606C12.9117 97.1656 13.0595 97.0954 13.2279 97.0479C13.3962 97.0004 13.5691 96.9778 13.7488 96.9778C13.9126 96.9778 14.0559 97.0004 14.1833 97.0457C14.3084 97.0909 14.4199 97.143 14.5109 97.2041C14.6019 97.2652 14.6815 97.3308 14.7429 97.4009C14.8043 97.4711 14.8521 97.5299 14.8862 97.5819C14.9204 97.6272 14.9295 97.6702 14.9158 97.7154C14.9022 97.7607 14.8771 97.7946 14.8453 97.8195C14.8112 97.8444 14.7702 97.8557 14.7224 97.8535C14.6747 97.8512 14.6315 97.8241 14.5928 97.7743C14.5587 97.7358 14.5177 97.6883 14.4699 97.6362C14.4222 97.5842 14.363 97.5344 14.2925 97.4892C14.222 97.4439 14.1424 97.4077 14.0536 97.376C13.9649 97.3444 13.8626 97.3308 13.7511 97.3308C13.6214 97.3308 13.4963 97.3466 13.3712 97.376C13.2461 97.4054 13.1369 97.4552 13.0391 97.5231C12.9413 97.591 12.8616 97.6747 12.8002 97.7743C12.7388 97.8738 12.707 97.9938 12.707 98.1341C12.707 98.263 12.7342 98.3716 12.7866 98.4599C12.8389 98.5481 12.9208 98.6319 13.03 98.7111C13.1392 98.7902 13.2757 98.8672 13.4372 98.9464C13.5987 99.0256 13.7898 99.1138 14.0104 99.2134C14.1674 99.2858 14.3221 99.3673 14.4745 99.4555C14.6269 99.5437 14.7588 99.6478 14.8749 99.7655C14.9909 99.8832 15.0773 100.021 15.1365 100.18C15.1956 100.338 15.2138 100.524 15.1911 100.736C15.1683 100.915 15.1205 101.076 15.0432 101.223C14.9681 101.368 14.8726 101.49 14.7566 101.592C14.6406 101.691 14.5086 101.77 14.3608 101.827C14.2129 101.883 14.0536 101.911 13.8853 101.911C13.7556 101.911 13.6237 101.895 13.4849 101.861C13.3485 101.827 13.2165 101.779 13.0891 101.718C12.9617 101.657 12.8503 101.582 12.7479 101.492C12.6455 101.401 12.5682 101.295 12.5113 101.177Z" fill="white"/>
<path d="M19.5376 96.9915C19.7173 96.9915 19.8948 97.0096 20.0722 97.0458C20.2496 97.082 20.4066 97.1431 20.5476 97.2268C20.6887 97.3105 20.8024 97.4191 20.8889 97.5526C20.9753 97.6861 21.0185 97.8513 21.0185 98.0459C21.0185 98.1138 20.9981 98.1613 20.9594 98.193C20.9207 98.2247 20.8775 98.2382 20.832 98.2382C20.7865 98.2382 20.7456 98.2224 20.7069 98.1885C20.6682 98.1545 20.6477 98.107 20.6477 98.0459C20.6477 98.0301 20.6386 97.9825 20.6227 97.9034C20.6068 97.8264 20.5613 97.745 20.493 97.6612C20.4225 97.5775 20.3133 97.5029 20.1655 97.435C20.0176 97.3671 19.8083 97.3354 19.5376 97.3354C19.1168 97.3354 18.812 97.4236 18.6209 97.6001C18.4298 97.7766 18.3342 98.0617 18.3342 98.4577V100.476C18.3342 100.879 18.4412 101.155 18.655 101.304C18.8688 101.454 19.1623 101.53 19.5399 101.53C19.9266 101.53 20.2223 101.449 20.4225 101.284C20.625 101.119 20.7251 100.847 20.7251 100.467C20.7251 100.406 20.7433 100.361 20.7797 100.329C20.8161 100.3 20.857 100.284 20.9025 100.284C20.948 100.284 20.989 100.3 21.0254 100.329C21.0618 100.361 21.08 100.406 21.08 100.467C21.08 100.729 21.0458 100.951 20.9753 101.132C20.9048 101.313 20.8024 101.458 20.6682 101.567C20.534 101.675 20.3702 101.754 20.1791 101.802C19.988 101.849 19.7742 101.872 19.5399 101.872C19.0235 101.872 18.6368 101.768 18.3775 101.558C18.1204 101.347 17.9907 100.987 17.9907 100.474V98.4555C17.9907 98.1771 18.0249 97.9441 18.0954 97.7563C18.1659 97.5685 18.266 97.419 18.3979 97.3036C18.5299 97.1905 18.6914 97.1091 18.8825 97.0616C19.0736 97.0164 19.2919 96.9915 19.5376 96.9915Z" fill="white"/>
<path d="M24.0327 98.3898C24.0327 97.9147 24.151 97.5571 24.3899 97.315C24.6287 97.0729 24.9859 96.9507 25.4636 96.9507H25.682C26.1529 96.9507 26.51 97.0729 26.7512 97.315C26.9923 97.5571 27.1128 97.9169 27.1128 98.3898V100.467C27.1128 100.901 26.9832 101.248 26.7216 101.506C26.46 101.761 26.1142 101.89 25.682 101.89H25.4636C25.2452 101.89 25.0473 101.856 24.8699 101.791C24.6924 101.723 24.5423 101.628 24.4195 101.501C24.2966 101.377 24.2011 101.225 24.1328 101.048C24.0646 100.872 24.0327 100.68 24.0327 100.467V98.3898ZM25.682 101.53C26.0187 101.53 26.2803 101.433 26.4691 101.241C26.6579 101.048 26.7512 100.791 26.7512 100.467V98.3898C26.7512 97.6635 26.394 97.3015 25.682 97.3015H25.4636C25.111 97.3015 24.8403 97.3942 24.6515 97.5775C24.4627 97.7608 24.3694 98.0323 24.3694 98.3898V100.467C24.3694 100.806 24.4672 101.069 24.6629 101.254C24.8585 101.438 25.1269 101.53 25.4636 101.53H25.682Z" fill="white"/>
<path d="M31.4241 101.22L32.6707 97.1339C32.6867 97.0773 32.7185 97.0411 32.764 97.0253C32.8095 97.0095 32.8504 97.0049 32.8914 97.0163C32.9301 97.0276 32.9642 97.0502 32.9915 97.0864C33.0188 97.1226 33.0256 97.1656 33.0074 97.2154L31.6607 101.678C31.6448 101.734 31.6152 101.775 31.572 101.802C31.5288 101.829 31.4833 101.845 31.4332 101.845C31.3832 101.845 31.3354 101.831 31.2899 101.802C31.2444 101.775 31.2148 101.732 31.1966 101.678L29.9091 97.2244C29.8932 97.1679 29.8977 97.1226 29.925 97.0864C29.9523 97.0502 29.9887 97.0276 30.0297 97.0163C30.0729 97.0049 30.1115 97.0072 30.1525 97.0208C30.1912 97.0344 30.2207 97.066 30.2367 97.1181L31.4241 101.22Z" fill="white"/>
<path d="M35.8599 97.2018C35.8599 97.1407 35.8804 97.0932 35.9236 97.0592C35.9669 97.0253 36.0101 97.0095 36.0533 97.0095H37.9892C38.0506 97.0095 38.0961 97.0276 38.1234 97.0638C38.1507 97.1 38.1666 97.143 38.1666 97.1882C38.1666 97.2357 38.1507 97.2765 38.1211 97.3127C38.0893 97.3489 38.046 97.367 37.9914 97.367H36.2239V99.193H37.6457C37.7071 99.193 37.7526 99.2134 37.7844 99.2519C37.8163 99.2903 37.8299 99.3333 37.8299 99.3786C37.8299 99.4238 37.814 99.4646 37.7799 99.503C37.7458 99.5415 37.7003 99.5619 37.6457 99.5619H36.2239V101.496H37.9914C38.0483 101.496 38.0893 101.515 38.1166 101.551C38.1439 101.587 38.1598 101.628 38.1598 101.673C38.1598 101.718 38.1461 101.759 38.1166 101.795C38.0893 101.831 38.046 101.849 37.9914 101.849H36.0556C36.0101 101.849 35.9668 101.836 35.9259 101.811C35.8827 101.786 35.8622 101.734 35.8622 101.657V97.2018H35.8599Z" fill="white"/>
<path d="M41.5063 101.68C41.5063 101.736 41.4881 101.777 41.4517 101.804C41.4153 101.831 41.3743 101.847 41.3288 101.847C41.2833 101.847 41.2424 101.834 41.206 101.804C41.1696 101.777 41.1514 101.734 41.1514 101.68V97.1838C41.1514 97.0661 41.2105 97.0073 41.3288 97.0073H42.4662C42.539 97.0073 42.6437 97.0164 42.7824 97.0367C42.9189 97.0571 43.0554 97.1046 43.1896 97.1793C43.3239 97.254 43.4421 97.3671 43.5422 97.5187C43.6423 97.6703 43.6947 97.8739 43.6947 98.1296V99.175C43.6947 99.7996 43.4194 100.182 42.8689 100.322L43.499 101.578C43.5263 101.639 43.5309 101.693 43.5127 101.736C43.4922 101.782 43.4626 101.811 43.4194 101.829C43.3762 101.847 43.3307 101.845 43.2761 101.829C43.2238 101.813 43.1783 101.768 43.1464 101.696L42.5072 100.381H41.5063V101.68ZM43.3421 98.1296C43.3421 98.0731 43.333 98.0007 43.317 97.9124C43.3011 97.8242 43.2624 97.7405 43.2033 97.6613C43.1441 97.5821 43.0554 97.5142 42.9371 97.4553C42.8188 97.3965 42.6619 97.3671 42.4662 97.3671H41.5063V100.021H42.3912C42.5095 100.021 42.6232 100.012 42.7369 99.9919C42.8484 99.9715 42.9508 99.9331 43.0395 99.8742C43.1282 99.8154 43.2033 99.7317 43.2579 99.6185C43.3148 99.5077 43.3421 99.3583 43.3421 99.175V98.1296Z" fill="white"/>
<path d="M46.961 102.684C46.9451 102.741 46.9132 102.777 46.8677 102.798C46.8222 102.818 46.7767 102.82 46.729 102.811C46.6812 102.8 46.6425 102.773 46.6152 102.732C46.5879 102.689 46.5811 102.632 46.5993 102.56C46.6152 102.503 46.6334 102.442 46.6493 102.372C46.6653 102.302 46.6812 102.234 46.6948 102.166C46.7085 102.098 46.7221 102.037 46.7335 101.983C46.7449 101.926 46.7494 101.888 46.7494 101.865C46.6539 101.861 46.5765 101.825 46.5174 101.757C46.4583 101.689 46.4287 101.61 46.4287 101.515C46.4287 101.42 46.4628 101.338 46.5333 101.268C46.6038 101.198 46.6948 101.164 46.8063 101.164C46.9291 101.164 47.0201 101.202 47.0793 101.282C47.1384 101.361 47.168 101.451 47.168 101.558C47.168 101.641 47.1612 101.734 47.1475 101.834C47.1339 101.933 47.1157 102.035 47.0929 102.139C47.0702 102.243 47.0474 102.34 47.0247 102.436C47.0065 102.528 46.9837 102.612 46.961 102.684Z" fill="white"/>
<path d="M53.8037 101.177C53.7764 101.128 53.7719 101.08 53.7946 101.039C53.8174 100.996 53.847 100.967 53.8879 100.947C53.9266 100.926 53.9698 100.922 54.0153 100.931C54.0608 100.94 54.0972 100.972 54.1245 101.028C54.1518 101.078 54.195 101.134 54.2542 101.196C54.3133 101.257 54.3884 101.313 54.4771 101.368C54.5658 101.422 54.6682 101.465 54.7842 101.501C54.9002 101.537 55.0299 101.555 55.1755 101.555C55.2369 101.555 55.3165 101.542 55.412 101.517C55.5076 101.492 55.6031 101.449 55.6987 101.388C55.7942 101.327 55.8807 101.241 55.9603 101.128C56.0399 101.017 56.0922 100.872 56.1195 100.693C56.1468 100.465 56.0831 100.259 55.9262 100.073C55.7692 99.8899 55.503 99.7067 55.1254 99.5302C54.8957 99.4238 54.6886 99.3243 54.5021 99.2292C54.3179 99.1342 54.1609 99.0346 54.0358 98.9283C53.9107 98.8219 53.8128 98.7065 53.7446 98.5798C53.6764 98.4554 53.6445 98.306 53.6445 98.1318C53.6445 97.9372 53.6832 97.7652 53.7628 97.6204C53.8424 97.4756 53.9448 97.3557 54.0744 97.2606C54.2041 97.1656 54.352 97.0954 54.5203 97.0479C54.6886 97.0004 54.8615 96.9778 55.0412 96.9778C55.205 96.9778 55.3483 97.0004 55.4757 97.0457C55.6009 97.0909 55.7123 97.143 55.8033 97.2041C55.8943 97.2652 55.9739 97.3308 56.0353 97.4009C56.0968 97.4711 56.1445 97.5299 56.1787 97.5819C56.2128 97.6272 56.2219 97.6702 56.2082 97.7154C56.1946 97.7607 56.1696 97.7946 56.1377 97.8195C56.1036 97.8444 56.0626 97.8557 56.0149 97.8535C55.9671 97.8512 55.9239 97.8241 55.8852 97.7743C55.8511 97.7358 55.8101 97.6883 55.7624 97.6362C55.7146 97.5842 55.6554 97.5344 55.5849 97.4892C55.5144 97.4439 55.4348 97.4077 55.3461 97.376C55.2574 97.3444 55.155 97.3308 55.0435 97.3308C54.9139 97.3308 54.7887 97.3466 54.6636 97.376C54.5385 97.4054 54.4293 97.4552 54.3315 97.5231C54.2337 97.591 54.1541 97.6747 54.0926 97.7743C54.0312 97.8738 53.9994 97.9938 53.9994 98.1341C53.9994 98.263 54.0267 98.3716 54.079 98.4599C54.1313 98.5481 54.2132 98.6319 54.3224 98.7111C54.4316 98.7902 54.5681 98.8672 54.7296 98.9464C54.8911 99.0256 55.0822 99.1138 55.3029 99.2134C55.4598 99.2858 55.6145 99.3673 55.7669 99.4555C55.9193 99.5437 56.0513 99.6478 56.1673 99.7655C56.2833 99.8832 56.3697 100.021 56.4289 100.18C56.488 100.338 56.5062 100.524 56.4835 100.736C56.4607 100.915 56.413 101.076 56.3356 101.223C56.2606 101.368 56.165 101.49 56.049 101.592C55.933 101.691 55.801 101.77 55.6532 101.827C55.5053 101.883 55.3461 101.911 55.1777 101.911C55.0481 101.911 54.9161 101.895 54.7774 101.861C54.6409 101.827 54.5089 101.779 54.3815 101.718C54.2542 101.657 54.1427 101.582 54.0403 101.492C53.938 101.401 53.8606 101.295 53.8037 101.177Z" fill="white"/>
<path d="M59.3838 97.1768C59.3838 97.1202 59.402 97.0795 59.4384 97.0546C59.4748 97.0297 59.518 97.0161 59.5635 97.0161C59.609 97.0161 59.6522 97.0297 59.6909 97.0546C59.7273 97.0795 59.7455 97.1202 59.7455 97.1768V99.1952H61.8588V97.1768C61.8588 97.1202 61.877 97.0795 61.9134 97.0524C61.9498 97.0252 61.9884 97.0116 62.0317 97.0139C62.0749 97.0161 62.1136 97.032 62.15 97.0591C62.1863 97.0863 62.2046 97.127 62.2046 97.1768V101.682C62.2046 101.739 62.1863 101.779 62.15 101.806C62.1136 101.834 62.0749 101.849 62.0317 101.849C61.9907 101.849 61.9498 101.836 61.9134 101.806C61.877 101.779 61.8588 101.736 61.8588 101.682V99.564H59.7455V101.682C59.7455 101.739 59.7273 101.779 59.6909 101.806C59.6545 101.834 59.6112 101.849 59.5635 101.849C59.5157 101.849 59.4748 101.836 59.4384 101.806C59.402 101.779 59.3838 101.736 59.3838 101.682V97.1768Z" fill="white"/>
<path d="M67.5074 100.557H65.7899L65.4532 101.68C65.4304 101.748 65.3963 101.793 65.3531 101.818C65.3099 101.843 65.2644 101.85 65.2234 101.838C65.1802 101.827 65.1461 101.804 65.1188 101.768C65.0915 101.732 65.0847 101.682 65.1029 101.621L66.4086 97.1748C66.4245 97.1182 66.4541 97.0775 66.4973 97.0503C66.5383 97.0232 66.5838 97.0073 66.6315 97.0073C66.6793 97.0073 66.7225 97.0209 66.7612 97.0503C66.7999 97.0775 66.8295 97.1205 66.8454 97.1748L68.183 101.612C68.1989 101.673 68.1966 101.723 68.1739 101.764C68.1511 101.804 68.1193 101.827 68.0783 101.838C68.0351 101.85 67.9942 101.843 67.9509 101.822C67.91 101.8 67.8759 101.754 67.8554 101.689L67.5074 100.557ZM65.899 100.198H67.3982L66.6315 97.6861L65.899 100.198Z" fill="white"/>
<path d="M71.4452 101.68C71.4452 101.736 71.427 101.777 71.3906 101.804C71.3542 101.831 71.3132 101.847 71.2677 101.847C71.2222 101.847 71.1813 101.834 71.1449 101.804C71.1085 101.777 71.0903 101.734 71.0903 101.68V97.1838C71.0903 97.0661 71.1494 97.0073 71.2677 97.0073H72.4052C72.4779 97.0073 72.5826 97.0164 72.7214 97.0367C72.8578 97.0571 72.9943 97.1046 73.1285 97.1793C73.2628 97.254 73.381 97.3671 73.4811 97.5187C73.5812 97.6703 73.6336 97.8739 73.6336 98.1296V99.175C73.6336 99.7996 73.3583 100.182 72.8078 100.322L73.4402 101.578C73.4675 101.639 73.472 101.693 73.4538 101.736C73.4334 101.782 73.4038 101.811 73.3606 101.829C73.3196 101.845 73.2719 101.845 73.2173 101.829C73.1627 101.813 73.1194 101.768 73.0876 101.696L72.4484 100.381H71.4474V101.68H71.4452ZM73.281 98.1296C73.281 98.0731 73.2719 98.0007 73.2559 97.9124C73.24 97.8242 73.2013 97.7405 73.1422 97.6613C73.083 97.5821 72.9943 97.5142 72.876 97.4553C72.7577 97.3965 72.6008 97.3671 72.4052 97.3671H71.4452V100.021H72.3278C72.4461 100.021 72.5598 100.012 72.6736 99.9919C72.785 99.9715 72.8874 99.9331 72.9761 99.8742C73.0648 99.8154 73.1399 99.7317 73.1945 99.6185C73.2514 99.5077 73.2787 99.3583 73.2787 99.175V98.1296H73.281Z" fill="white"/>
<path d="M76.7065 97.2018C76.7065 97.1407 76.727 97.0932 76.7702 97.0592C76.8112 97.0253 76.8566 97.0095 76.8999 97.0095H78.8357C78.8972 97.0095 78.9427 97.0276 78.97 97.0638C78.9973 97.1 79.0109 97.143 79.0109 97.1882C79.0109 97.2357 78.995 97.2765 78.9654 97.3127C78.9336 97.3489 78.8903 97.367 78.8357 97.367H77.0682V99.193H78.49C78.5514 99.193 78.5969 99.2134 78.6287 99.2519C78.6606 99.2903 78.6742 99.3333 78.6742 99.3786C78.6742 99.4238 78.6583 99.4646 78.6242 99.503C78.5901 99.5415 78.5446 99.5619 78.49 99.5619H77.0682V101.496H78.8357C78.8926 101.496 78.9336 101.515 78.9631 101.551C78.9904 101.587 79.0041 101.628 79.0041 101.673C79.0041 101.718 78.9904 101.759 78.9631 101.795C78.9358 101.831 78.8926 101.849 78.8357 101.849H76.8999C76.8544 101.849 76.8112 101.836 76.7702 101.811C76.727 101.786 76.7065 101.734 76.7065 101.657V97.2018Z" fill="white"/>
<path d="M82.1685 102.684C82.1526 102.741 82.1207 102.777 82.0752 102.798C82.0297 102.818 81.9843 102.82 81.9365 102.811C81.8887 102.8 81.85 102.773 81.8227 102.732C81.7954 102.689 81.7886 102.632 81.8068 102.56C81.8227 102.503 81.8409 102.442 81.8569 102.372C81.8728 102.302 81.8887 102.234 81.9024 102.166C81.916 102.098 81.9297 102.037 81.941 101.983C81.9524 101.926 81.957 101.888 81.957 101.865C81.8614 101.861 81.7841 101.825 81.7249 101.757C81.6658 101.689 81.6362 101.61 81.6362 101.515C81.6362 101.42 81.6703 101.338 81.7408 101.268C81.8114 101.198 81.9024 101.164 82.0138 101.164C82.1367 101.164 82.2277 101.202 82.2868 101.282C82.346 101.361 82.3755 101.451 82.3755 101.558C82.3755 101.641 82.3687 101.734 82.355 101.834C82.3414 101.933 82.3232 102.035 82.3005 102.139C82.2777 102.243 82.255 102.34 82.2322 102.436C82.214 102.528 82.1913 102.612 82.1685 102.684Z" fill="white"/>
<path d="M90.5671 96.9915C90.7469 96.9915 90.9243 97.0096 91.1017 97.0458C91.2792 97.082 91.4361 97.1431 91.5772 97.2268C91.7182 97.3105 91.8319 97.4191 91.9184 97.5526C92.0048 97.6861 92.048 97.8513 92.048 98.0459C92.048 98.1138 92.0276 98.1613 91.9889 98.193C91.9502 98.2247 91.907 98.2382 91.8638 98.2382C91.8206 98.2382 91.7773 98.2224 91.7387 98.1885C91.7 98.1545 91.6795 98.107 91.6795 98.0459C91.6795 98.0301 91.6704 97.9825 91.6545 97.9034C91.6386 97.8264 91.5931 97.745 91.5248 97.6612C91.4543 97.5775 91.3451 97.5029 91.1973 97.435C91.0494 97.3671 90.8401 97.3354 90.5694 97.3354C90.1486 97.3354 89.8437 97.4236 89.6527 97.6001C89.4616 97.7766 89.366 98.0617 89.366 98.4577V100.476C89.366 100.879 89.473 101.155 89.6868 101.304C89.9006 101.454 90.1941 101.53 90.5694 101.53C90.9561 101.53 91.2519 101.449 91.4543 101.284C91.6568 101.119 91.7569 100.847 91.7569 100.467C91.7569 100.406 91.7751 100.361 91.8115 100.329C91.8479 100.3 91.8888 100.284 91.9343 100.284C91.9798 100.284 92.0208 100.3 92.0572 100.329C92.0935 100.361 92.1117 100.406 92.1117 100.467C92.1117 100.729 92.0776 100.951 92.0071 101.132C91.9366 101.313 91.8342 101.458 91.7 101.567C91.5658 101.675 91.402 101.754 91.2109 101.802C91.0198 101.849 90.806 101.872 90.5717 101.872C90.0553 101.872 89.6686 101.768 89.4093 101.558C89.1522 101.347 89.0225 100.987 89.0225 100.474V98.4555C89.0225 98.1771 89.0567 97.9441 89.1272 97.7563C89.1977 97.5685 89.2978 97.419 89.4297 97.3036C89.5617 97.1905 89.7232 97.1091 89.9143 97.0616C90.1054 97.0141 90.3215 96.9915 90.5671 96.9915Z" fill="white"/>
<path d="M95.062 98.3898C95.062 97.9147 95.1803 97.5571 95.4192 97.315C95.658 97.0729 96.0152 96.9507 96.4929 96.9507H96.7113C97.1822 96.9507 97.5393 97.0729 97.7804 97.315C98.0216 97.5571 98.1421 97.9169 98.1421 98.3898V100.467C98.1421 100.901 98.0125 101.248 97.7509 101.506C97.4893 101.761 97.1435 101.89 96.7113 101.89H96.4929C96.2745 101.89 96.0766 101.856 95.8992 101.791C95.7217 101.723 95.5716 101.628 95.4488 101.501C95.3259 101.377 95.2304 101.225 95.1621 101.048C95.0939 100.872 95.062 100.68 95.062 100.467V98.3898ZM96.7113 101.53C97.048 101.53 97.3096 101.433 97.4984 101.241C97.6872 101.048 97.7804 100.791 97.7804 100.467V98.3898C97.7804 97.6635 97.4233 97.3015 96.7113 97.3015H96.4929C96.1403 97.3015 95.8673 97.3942 95.6808 97.5775C95.492 97.7608 95.3987 98.0323 95.3987 98.3898V100.467C95.3987 100.806 95.4965 101.069 95.6922 101.254C95.8878 101.438 96.1562 101.53 96.4929 101.53H96.7113Z" fill="white"/>
<path d="M103.859 101.68C103.859 101.73 103.843 101.768 103.813 101.797C103.782 101.825 103.747 101.84 103.709 101.843C103.67 101.845 103.629 101.838 103.586 101.818C103.543 101.797 103.511 101.766 103.488 101.721L101.561 97.9371V101.68C101.561 101.736 101.543 101.777 101.507 101.804C101.47 101.831 101.429 101.847 101.384 101.847C101.338 101.847 101.297 101.834 101.261 101.804C101.225 101.777 101.206 101.734 101.206 101.68V97.1768C101.206 97.1315 101.22 97.0953 101.25 97.0682C101.277 97.041 101.309 97.0229 101.347 97.0184C101.384 97.0139 101.418 97.0161 101.452 97.0275C101.486 97.0388 101.511 97.0591 101.527 97.0863L103.497 100.947V97.1768C103.497 97.1202 103.515 97.0795 103.552 97.0524C103.588 97.0252 103.631 97.0116 103.679 97.0139C103.727 97.0161 103.768 97.032 103.804 97.0591C103.841 97.0863 103.859 97.127 103.859 97.1768V101.68Z" fill="white"/>
<path d="M109.698 101.68C109.698 101.73 109.682 101.768 109.653 101.797C109.621 101.825 109.587 101.84 109.548 101.843C109.509 101.845 109.468 101.838 109.425 101.818C109.382 101.797 109.35 101.766 109.327 101.721L107.401 97.9371V101.68C107.401 101.736 107.382 101.777 107.346 101.804C107.31 101.831 107.269 101.847 107.223 101.847C107.178 101.847 107.137 101.834 107.1 101.804C107.064 101.777 107.046 101.734 107.046 101.68V97.1768C107.046 97.1315 107.059 97.0953 107.089 97.0682C107.116 97.041 107.148 97.0229 107.187 97.0184C107.223 97.0139 107.257 97.0161 107.291 97.0275C107.326 97.0388 107.351 97.0591 107.367 97.0863L109.337 100.947V97.1768C109.337 97.1202 109.355 97.0795 109.391 97.0524C109.428 97.0252 109.471 97.0116 109.519 97.0139C109.566 97.0161 109.607 97.032 109.644 97.0591C109.68 97.0863 109.698 97.127 109.698 97.1768V101.68Z" fill="white"/>
<path d="M112.872 97.2018C112.872 97.1407 112.892 97.0932 112.935 97.0592C112.976 97.0253 113.022 97.0095 113.065 97.0095H115.001C115.062 97.0095 115.108 97.0276 115.135 97.0638C115.162 97.1 115.176 97.143 115.176 97.1882C115.176 97.2357 115.16 97.2765 115.131 97.3127C115.099 97.3489 115.056 97.367 115.001 97.367H113.233V99.193H114.655C114.717 99.193 114.762 99.2134 114.794 99.2519C114.826 99.2903 114.839 99.3333 114.839 99.3786C114.839 99.4238 114.823 99.4646 114.789 99.503C114.755 99.5415 114.71 99.5619 114.655 99.5619H113.233V101.496H115.001C115.058 101.496 115.099 101.515 115.128 101.551C115.156 101.587 115.169 101.628 115.169 101.673C115.169 101.718 115.156 101.759 115.128 101.795C115.101 101.831 115.058 101.849 115.001 101.849H113.065C113.02 101.849 112.976 101.836 112.935 101.811C112.892 101.786 112.872 101.734 112.872 101.657V97.2018Z" fill="white"/>
<path d="M119.589 96.9915C119.769 96.9915 119.947 97.0096 120.124 97.0458C120.301 97.082 120.458 97.1431 120.599 97.2268C120.74 97.3105 120.854 97.4191 120.941 97.5526C121.027 97.6861 121.07 97.8513 121.07 98.0459C121.07 98.1138 121.05 98.1613 121.011 98.193C120.973 98.2247 120.929 98.2382 120.886 98.2382C120.843 98.2382 120.8 98.2224 120.761 98.1885C120.722 98.1545 120.702 98.107 120.702 98.0459C120.702 98.0301 120.693 97.9825 120.677 97.9034C120.661 97.8264 120.615 97.745 120.547 97.6612C120.477 97.5775 120.367 97.5029 120.22 97.435C120.072 97.3671 119.862 97.3354 119.592 97.3354C119.171 97.3354 118.866 97.4236 118.675 97.6001C118.484 97.7766 118.388 98.0617 118.388 98.4577V100.476C118.388 100.879 118.495 101.155 118.709 101.304C118.923 101.454 119.216 101.53 119.592 101.53C119.978 101.53 120.274 101.449 120.477 101.284C120.679 101.119 120.779 100.847 120.779 100.467C120.779 100.406 120.797 100.361 120.834 100.329C120.87 100.3 120.911 100.284 120.957 100.284C121.002 100.284 121.043 100.3 121.079 100.329C121.116 100.361 121.134 100.406 121.134 100.467C121.134 100.729 121.1 100.951 121.029 101.132C120.959 101.313 120.856 101.458 120.722 101.567C120.588 101.675 120.424 101.754 120.233 101.802C120.042 101.849 119.828 101.872 119.594 101.872C119.078 101.872 118.691 101.768 118.432 101.558C118.174 101.347 118.045 100.987 118.045 100.474V98.4555C118.045 98.1771 118.079 97.9441 118.149 97.7563C118.22 97.5685 118.32 97.419 118.452 97.3036C118.584 97.1905 118.745 97.1091 118.937 97.0616C119.128 97.0141 119.341 96.9915 119.589 96.9915Z" fill="white"/>
<path d="M126.457 97.0095C126.507 97.0095 126.546 97.0276 126.575 97.0638C126.605 97.1 126.618 97.143 126.618 97.1882C126.618 97.2357 126.605 97.2765 126.58 97.3127C126.555 97.3489 126.514 97.367 126.457 97.367H125.397V101.678C125.397 101.734 125.379 101.775 125.342 101.802C125.306 101.829 125.263 101.845 125.215 101.845C125.167 101.845 125.126 101.831 125.09 101.802C125.053 101.775 125.035 101.732 125.035 101.678V97.367H123.916C123.866 97.367 123.825 97.3489 123.798 97.3127C123.77 97.2765 123.757 97.2357 123.757 97.1882C123.757 97.1407 123.77 97.1 123.798 97.0638C123.825 97.0276 123.866 97.0095 123.916 97.0095H126.457Z" fill="white"/>
<path d="M18.7093 71.1723C18.7093 70.6057 18.6228 70.0971 18.4498 69.6467C18.2912 69.1818 17.9885 68.7604 17.5416 68.3827C17.0948 67.9904 16.4677 67.6053 15.6604 67.2276C14.8532 66.8498 13.8081 66.4575 12.5251 66.0507C11.098 65.5857 9.74292 65.0627 8.45995 64.4815C7.1914 63.9003 6.067 63.2247 5.08676 62.4546C4.12093 61.67 3.35691 60.762 2.79471 59.7304C2.24693 58.6988 1.97304 57.5001 1.97304 56.1343C1.97304 54.8121 2.26135 53.6134 2.83796 52.5383C3.41457 51.4486 4.22184 50.5187 5.25974 49.7486C6.29765 48.964 7.52296 48.361 8.93566 47.9397C10.3628 47.5183 11.9269 47.3077 13.6279 47.3077C15.9487 47.3077 17.9741 47.729 19.7039 48.5717C21.4338 49.4144 22.7744 50.5695 23.7258 52.037C24.6917 53.5045 25.1746 55.1826 25.1746 57.0715H18.7309C18.7309 56.1416 18.5363 55.3279 18.1471 54.6305C17.7723 53.9186 17.1957 53.3592 16.4172 52.9524C15.6532 52.5455 14.6874 52.3421 13.5198 52.3421C12.3954 52.3421 11.4584 52.5165 10.7088 52.8652C9.95915 53.1994 9.39695 53.657 9.02215 54.2382C8.64735 54.8049 8.45995 55.4442 8.45995 56.1561C8.45995 56.6937 8.58969 57.1804 8.84917 57.6163C9.12306 58.0522 9.52669 58.459 10.0601 58.8368C10.5934 59.2146 11.2493 59.5705 12.0278 59.9047C12.8062 60.2389 13.7072 60.5658 14.7306 60.8855C16.4461 61.4085 17.9525 61.997 19.2499 62.6508C20.5617 63.3046 21.6572 64.0384 22.5366 64.852C23.4159 65.6657 24.079 66.5883 24.5259 67.6199C24.9728 68.6515 25.1962 69.8211 25.1962 71.1287C25.1962 72.509 24.9295 73.744 24.3961 74.8338C23.8628 75.9235 23.0916 76.8461 22.0825 77.6016C21.0734 78.3572 19.8697 78.9311 18.4714 79.3234C17.0731 79.7157 15.5091 79.9118 13.7792 79.9118C12.2224 79.9118 10.6871 79.7084 9.17352 79.3016C7.6599 78.8802 6.28323 78.2482 5.04351 77.4055C3.81821 76.5628 2.83796 75.4876 2.10278 74.1799C1.36759 72.8723 1 71.3249 1 69.5378H7.50854C7.50854 70.5258 7.6599 71.3612 7.96262 72.0441C8.26535 72.727 8.6906 73.2791 9.23838 73.7005C9.80058 74.1218 10.4637 74.4269 11.2277 74.6158C12.0061 74.8047 12.8566 74.8991 13.7792 74.8991C14.9036 74.8991 15.8262 74.7393 16.547 74.4197C17.2822 74.1 17.8227 73.6569 18.1687 73.0902C18.5291 72.5236 18.7093 71.8843 18.7093 71.1723Z" fill="white"/>
<path d="M44.221 55.8946V60.3406H30.5985V55.8946H44.221ZM33.9717 50.0755H40.1991V72.371C40.1991 73.0539 40.2856 73.577 40.4586 73.9402C40.646 74.3034 40.9199 74.5577 41.2803 74.703C41.6407 74.8338 42.0948 74.8991 42.6425 74.8991C43.0318 74.8991 43.3777 74.8846 43.6805 74.8555C43.9976 74.812 44.2643 74.7684 44.4805 74.7248L44.5021 79.3452C43.9688 79.5195 43.3921 79.6575 42.7723 79.7592C42.1524 79.861 41.4677 79.9118 40.7181 79.9118C39.3486 79.9118 38.1522 79.6866 37.1287 79.2362C36.1196 78.7712 35.3412 78.0302 34.7934 77.0132C34.2456 75.9961 33.9717 74.6594 33.9717 73.003V50.0755Z" fill="white"/>
<path d="M65.1487 73.8312V55.8946H71.3761V79.4759H65.5163L65.1487 73.8312ZM65.8406 68.9929L67.6786 68.9493C67.6786 70.5185 67.4984 71.9787 67.138 73.33C66.7776 74.6667 66.2371 75.829 65.5163 76.817C64.7955 77.7905 63.8873 78.5533 62.7918 79.1054C61.6962 79.643 60.406 79.9118 58.9213 79.9118C57.7824 79.9118 56.7301 79.752 55.7643 79.4323C54.8129 79.0982 53.9912 78.5824 53.2993 77.8849C52.6217 77.173 52.0884 76.2649 51.6992 75.1607C51.3244 74.0419 51.137 72.6979 51.137 71.1287V55.8946H57.3644V71.1723C57.3644 71.8697 57.4437 72.4582 57.6022 72.9377C57.7752 73.4171 58.0131 73.8094 58.3158 74.1145C58.6185 74.4197 58.9717 74.6376 59.3753 74.7684C59.7934 74.8991 60.2547 74.9645 60.7592 74.9645C62.0422 74.9645 63.0513 74.703 63.7864 74.1799C64.536 73.6569 65.0622 72.9449 65.3649 72.0441C65.6821 71.1287 65.8406 70.1117 65.8406 68.9929Z" fill="white"/>
<path d="M93.4931 74.3325V46H99.7637V79.4759H94.1201L93.4931 74.3325ZM78.7029 67.9686V67.5109C78.7029 65.7092 78.9047 64.0747 79.3083 62.6072C79.712 61.1252 80.303 59.8539 81.0814 58.7932C81.8599 57.7326 82.8185 56.9116 83.9573 56.3305C85.0961 55.7493 86.3935 55.4587 87.8494 55.4587C89.2189 55.4587 90.4154 55.7493 91.4389 56.3305C92.4768 56.9116 93.3561 57.7398 94.0769 58.815C94.8121 59.8757 95.4031 61.1325 95.85 62.5854C96.2969 64.0238 96.6212 65.6003 96.823 67.3147V68.3173C96.6212 69.9591 96.2969 71.4847 95.85 72.8941C95.4031 74.3034 94.8121 75.5384 94.0769 76.5991C93.3561 77.6452 92.4768 78.4589 91.4389 79.04C90.401 79.6212 89.1901 79.9118 87.8062 79.9118C86.3502 79.9118 85.0529 79.614 83.914 79.0182C82.7896 78.4225 81.8382 77.5871 81.0598 76.5119C80.2958 75.4367 79.712 74.1727 79.3083 72.7197C78.9047 71.2668 78.7029 69.6831 78.7029 67.9686ZM84.9303 67.5109V67.9686C84.9303 68.9421 85.0024 69.8501 85.1466 70.6929C85.3051 71.5356 85.5574 72.2838 85.9034 72.9377C86.2638 73.577 86.725 74.0782 87.2872 74.4415C87.8639 74.7902 88.563 74.9645 89.3847 74.9645C90.4514 74.9645 91.3308 74.7248 92.0227 74.2453C92.7146 73.7513 93.2408 73.0757 93.6012 72.2184C93.976 71.3612 94.1922 70.3732 94.2499 69.2544V66.3994C94.2066 65.484 94.0769 64.6631 93.8607 63.9366C93.6588 63.1956 93.3561 62.5636 92.9525 62.0405C92.5633 61.5175 92.0731 61.1107 91.4821 60.8201C90.9055 60.5295 90.2208 60.3842 89.4279 60.3842C88.6207 60.3842 87.9287 60.5731 87.3521 60.9508C86.7755 61.3141 86.307 61.8153 85.9466 62.4546C85.6006 63.0939 85.3412 63.8495 85.1682 64.7212C85.0096 65.5785 84.9303 66.5084 84.9303 67.5109Z" fill="white"/>
<path d="M115.113 76.817L121.318 55.8946H128L118.594 83.0284C118.392 83.6241 118.118 84.2634 117.772 84.9463C117.441 85.6292 116.987 86.2757 116.41 86.886C115.848 87.5107 115.134 88.0193 114.269 88.4116C113.419 88.8039 112.374 89 111.134 89C110.543 89 110.06 88.9637 109.685 88.891C109.31 88.8184 108.864 88.7167 108.345 88.5859V83.9873C108.503 83.9873 108.669 83.9873 108.842 83.9873C109.015 84.0019 109.181 84.0091 109.339 84.0091C110.161 84.0091 110.831 83.9147 111.35 83.7258C111.869 83.5369 112.287 83.2463 112.604 82.854C112.922 82.4763 113.174 81.9823 113.361 81.372L115.113 76.817ZM112.518 55.8946L117.599 72.9812L118.486 79.6285L114.248 80.0862L105.836 55.8946H112.518Z" fill="white"/>
</g>
<defs>
<clipPath id="clip0_75_2882">
<rect width="127" height="103" fill="white"/>
</clipPath>
</defs>
</svg>
