<svg width="31" height="31" viewBox="0 0 31 31" fill="none" xmlns="http://www.w3.org/2000/svg">
<path d="M23.8403 0.293457H7.0651C3.44498 0.293457 0.535522 3.23122 0.535522 6.8504V23.6053C0.535522 27.239 3.44498 30.2218 7.0651 30.2218H23.8403C27.4604 30.2218 30.473 27.239 30.473 23.6053V6.8504C30.4716 3.23122 27.4604 0.293457 23.8403 0.293457Z" fill="#FEFEFE"/>
<path fill-rule="evenodd" clip-rule="evenodd" d="M7.06509 0.114746H23.8403C27.4604 0.114746 30.4323 3.08593 30.4323 6.70511V23.46C30.4323 27.0937 27.4604 30.0649 23.8403 30.0649H7.06509C3.44498 30.0663 0.473022 27.0951 0.473022 23.46V6.70511C0.473022 3.08593 3.44498 0.114746 7.06509 0.114746Z" fill="url(#paint0_linear_1_8891)"/>
<path d="M19.8438 25.2831H11.0602C7.86004 25.2831 5.25577 22.6795 5.25577 19.4802V10.6989C5.25577 7.4996 7.86004 4.896 11.0602 4.896H19.8438C23.0439 4.896 25.6482 7.4996 25.6482 10.6989V19.4817C25.6482 22.681 23.0453 25.2831 19.8438 25.2831ZM11.0602 6.64384C8.82356 6.64384 7.00406 8.46287 7.00406 10.6989V19.4817C7.00406 21.7177 8.82356 23.5367 11.0602 23.5367H19.8438C22.0804 23.5367 23.8999 21.7177 23.8999 19.4817V10.6989C23.8999 8.46287 22.0804 6.64384 19.8438 6.64384H11.0602Z" fill="white"/>
<path d="M15.452 20.3099C12.5731 20.3099 10.2304 17.9679 10.2304 15.0897C10.2304 12.2115 12.5731 9.86938 15.452 9.86938C18.3309 9.86938 20.6736 12.2115 20.6736 15.0897C20.6736 17.9693 18.3309 20.3099 15.452 20.3099ZM15.452 11.6172C13.5366 11.6172 11.9787 13.1747 11.9787 15.0897C11.9787 17.0046 13.5366 18.5621 15.452 18.5621C17.3674 18.5621 18.9253 17.0046 18.9253 15.0897C18.9253 13.1762 17.3674 11.6172 15.452 11.6172Z" fill="white"/>
<path d="M22.1531 9.57171C22.1531 10.2647 21.5906 10.8256 20.8989 10.8256C20.2057 10.8256 19.6432 10.2647 19.6432 9.57171C19.6432 8.87868 20.2057 8.31641 20.8989 8.31641C21.5906 8.31786 22.1531 8.87868 22.1531 9.57171Z" fill="white"/>
<defs>
<linearGradient id="paint0_linear_1_8891" x1="15.4523" y1="0.620835" x2="15.4523" y2="29.2145" gradientUnits="userSpaceOnUse">
<stop stop-color="#FEC053"/>
<stop offset="0.3273" stop-color="#F2203E"/>
<stop offset="0.6485" stop-color="#B729A8"/>
<stop offset="1" stop-color="#5342D6"/>
</linearGradient>
</defs>
</svg>
