<svg width="31" height="31" viewBox="0 0 31 31" fill="none" xmlns="http://www.w3.org/2000/svg">
<path d="M24.1845 0.450195H7.42535C3.78925 0.450195 0.776611 3.38796 0.776611 7.00714V23.762C0.776611 27.3971 3.78925 30.3799 7.42535 30.3799H24.1845C27.8206 30.3799 30.7141 27.3971 30.7141 23.762V7.00714C30.7141 3.38796 27.8206 0.450195 24.1845 0.450195Z" fill="#FEFEFE"/>
<path fill-rule="evenodd" clip-rule="evenodd" d="M7.42534 0.271484H24.1845C27.8206 0.271484 30.7766 3.24267 30.7766 6.86184V23.6167C30.7766 27.2518 27.8206 30.2216 24.1845 30.2216H7.42534C3.78925 30.2216 0.833282 27.2504 0.833282 23.6167V6.86184C0.833282 3.24267 3.78925 0.271484 7.42534 0.271484Z" fill="url(#paint0_linear_1_8905)"/>
<path d="M12.1655 13.0317H9.41632V21.9063H12.1655V13.0317Z" fill="white"/>
<path d="M10.7769 11.8675C11.6728 11.8675 12.4007 11.134 12.4007 10.227C12.4007 9.31991 11.6728 8.58643 10.7769 8.58643C9.88108 8.58643 9.1532 9.31991 9.1532 10.227C9.1532 11.134 9.88108 11.8675 10.7769 11.8675Z" fill="white"/>
<path d="M16.5552 17.248C16.5552 15.9994 17.1319 15.2548 18.2293 15.2548C19.2372 15.2548 19.7243 15.9659 19.7243 17.248C19.7243 18.5246 19.7243 21.9065 19.7243 21.9065H22.4566C22.4566 21.9065 22.4566 18.6646 22.4566 16.285C22.4566 13.9054 21.1073 12.7576 19.226 12.7576C17.3447 12.7576 16.5496 14.2245 16.5496 14.2245V13.0263H13.9124V21.9009H16.5496C16.5552 21.9065 16.5552 18.6142 16.5552 17.248Z" fill="white"/>
<defs>
<linearGradient id="paint0_linear_1_8905" x1="15.8048" y1="-0.058542" x2="15.8048" y2="28.5694" gradientUnits="userSpaceOnUse">
<stop stop-color="#117BB8"/>
<stop offset="1" stop-color="#0B73AE"/>
</linearGradient>
</defs>
</svg>
