<svg width="60" height="61" viewBox="0 0 60 61" fill="none" xmlns="http://www.w3.org/2000/svg">
<path d="M59.9222 1.74927C59.6642 2.03727 59.4182 2.34327 59.1482 2.61927C56.6042 5.16929 54.0542 7.7133 51.5102 10.2633C51.3602 10.4133 51.2222 10.5693 51.0662 10.7313C51.2702 10.8873 51.4742 10.8213 51.6542 10.8213C53.0342 10.8273 54.4202 10.8153 55.8002 10.8273C56.5802 10.8333 57.1142 11.3253 57.1262 12.0153C57.1382 12.6993 56.5982 13.2333 55.8362 13.2393C53.2442 13.2513 50.6582 13.2513 48.0662 13.2393C47.2682 13.2333 46.8002 12.7653 46.7942 11.9613C46.7822 9.36931 46.7822 6.7833 46.7942 4.19128C46.8002 3.42928 47.3342 2.88927 48.0182 2.90127C48.7022 2.91927 49.2002 3.45328 49.2062 4.23328C49.2182 5.78729 49.2122 7.3473 49.2122 8.94331C49.4822 8.90131 49.5902 8.70331 49.7282 8.56531C52.2902 6.00929 54.8522 3.44728 57.4142 0.88526C57.6902 0.609258 57.9962 0.369257 58.2842 0.111255C58.8302 0.111255 59.5862 -0.0987464 59.8622 0.171255C60.1322 0.447257 59.9222 1.20326 59.9222 1.74927Z" fill="#474747"/>
<path d="M1.71589 0.111572C2.00389 0.369574 2.3099 0.609575 2.5859 0.885577C5.13591 3.42959 7.67993 5.97961 10.2299 8.52363C10.3799 8.67363 10.5359 8.81163 10.6979 8.96763C10.854 8.76363 10.7879 8.55963 10.7879 8.37963C10.794 6.99962 10.7819 5.61361 10.794 4.2336C10.7999 3.45359 11.292 2.91959 11.982 2.90759C12.666 2.89559 13.2 3.43559 13.206 4.1976C13.218 6.78962 13.218 9.37563 13.206 11.9676C13.2 12.7657 12.732 13.2337 11.928 13.2397C9.33594 13.2517 6.74992 13.2517 4.15791 13.2397C3.3959 13.2337 2.8559 12.6937 2.8739 12.0156C2.8859 11.3256 3.4199 10.8336 4.19991 10.8276C5.75392 10.8156 7.31393 10.8216 8.90994 10.8216C8.86794 10.5516 8.66994 10.4436 8.53193 10.2996C5.97592 7.74362 3.4139 5.1816 0.851886 2.61959C0.581884 2.34359 0.335883 2.03758 0.0778809 1.74958C0.0778809 1.20358 0.0778809 0.657576 0.0778809 0.111572C0.623884 0.111572 1.16989 0.111572 1.71589 0.111572Z" fill="#474747"/>
<path d="M0.0778077 58.3177C0.335809 58.0297 0.581811 57.7237 0.851813 57.4477C3.39583 54.8977 5.94585 52.3536 8.48986 49.8036C8.63986 49.6536 8.77786 49.4976 8.93386 49.3356C8.72986 49.1736 8.52586 49.2456 8.34586 49.2456C6.96585 49.2396 5.57984 49.2516 4.19983 49.2396C3.41983 49.2336 2.88583 48.7416 2.87383 48.0516C2.85583 47.3736 3.39583 46.8336 4.15783 46.8276C6.74985 46.8156 9.33587 46.8156 11.9279 46.8276C12.7319 46.8336 13.1999 47.3016 13.2059 48.1056C13.2179 50.6976 13.2179 53.2836 13.2059 55.8757C13.1999 56.6377 12.6659 57.1777 11.9819 57.1657C11.2979 57.1477 10.7999 56.6137 10.7939 55.8337C10.7819 54.2797 10.7879 52.7196 10.7879 51.1236C10.5179 51.1656 10.4099 51.3636 10.2719 51.5016C7.70986 54.0577 5.14784 56.6197 2.58582 59.1817C2.30982 59.4577 2.00382 59.6977 1.71582 59.9557C1.16981 59.9557 0.41381 60.1657 0.137808 59.8957C-0.132194 59.6197 0.0778077 58.8637 0.0778077 58.3177Z" fill="#474747"/>
<path d="M58.2842 59.9553C56.8922 58.7733 55.6562 57.4233 54.3782 56.1213C53.8862 55.6173 53.9402 54.9033 54.4022 54.4413C54.8642 53.9793 55.5782 53.9193 56.0822 54.4173C57.3842 55.6953 58.7342 56.9253 59.9162 58.3233C59.9162 58.8693 60.1262 59.6253 59.8562 59.9013C59.5862 60.1653 58.8302 59.9553 58.2842 59.9553Z" fill="#474747"/>
<path d="M7.75181 35.1024C7.75181 33.4464 7.74581 31.7904 7.75181 30.1344C7.76381 26.7683 9.86383 24.0083 13.1158 23.1263C13.6138 22.9943 13.7519 22.9223 13.4638 22.3763C12.1858 19.9823 12.5158 15.8903 15.7319 14.1803C19.2359 12.3203 23.5799 14.7143 23.8259 18.6743C23.9099 20.0543 23.8259 21.4043 23.0699 22.6223C23.0399 22.6703 22.9799 22.7423 22.9979 22.7783C23.2319 23.2943 23.8079 23.0723 24.1799 23.3063C24.4019 23.4443 24.4679 23.2523 24.4919 23.0483C24.5939 22.2143 24.8099 21.4163 25.2359 20.6723C26.3579 18.6923 28.7279 17.5823 31.002 17.9963C33.24 18.4043 35.082 20.2883 35.418 22.5023C35.544 23.3423 35.544 23.3423 36.408 23.1203C37.08 22.9463 37.068 22.9523 36.768 22.3403C35.514 19.7543 35.964 15.6563 39.342 14.0483C42.624 12.4823 46.6621 14.6603 47.1181 18.2663C47.3161 19.8143 47.2201 21.2963 46.3861 22.6643C46.1281 23.0843 46.5241 23.0183 46.6921 23.0603C48.5401 23.5463 50.0341 24.5363 51.0841 26.1383C51.7741 27.2003 52.2361 28.3584 52.2421 29.6424C52.2601 33.3444 52.2541 37.0464 52.2481 40.7484C52.2481 41.6364 51.8521 42.0804 50.9701 42.1704C50.5261 42.2184 50.0761 42.1944 49.6261 42.1944C46.8781 42.1944 44.13 42.1944 41.388 42.1944C40.662 42.1944 40.638 42.2184 40.632 42.9564C40.626 43.6585 40.656 44.3605 40.614 45.0625C40.554 46.1425 40.104 46.5445 39.012 46.5445C34.122 46.5445 29.2319 46.5445 24.3419 46.5445C23.1899 46.5445 22.0439 46.5505 20.8919 46.5445C19.9319 46.5385 19.4759 46.1485 19.4039 45.2005C19.3439 44.4265 19.3559 43.6405 19.3799 42.8664C19.3919 42.3624 19.2119 42.1824 18.7019 42.1884C15.7199 42.2064 12.7438 42.1944 9.76183 42.1944C9.54582 42.1944 9.32982 42.2004 9.11982 42.1824C8.17181 42.0924 7.75781 41.6544 7.75781 40.7124C7.74581 38.8404 7.75181 36.9684 7.75181 35.1024ZM21.8579 38.6604C21.8579 40.2984 21.8519 41.6244 21.8579 42.9504C21.8639 44.1085 21.6899 44.0305 22.9499 44.0665C23.5139 44.0845 23.6879 43.8865 23.6819 43.3285C23.6579 41.1084 23.6699 38.8884 23.6759 36.6684C23.6759 35.5704 24.1259 34.9644 24.9239 34.9464C25.7039 34.9344 26.1719 35.5644 26.1719 36.6564C26.1719 38.8764 26.1899 41.0964 26.1599 43.3165C26.1539 43.8625 26.2979 44.0725 26.8799 44.0665C28.9619 44.0365 31.05 44.0425 33.132 44.0665C33.654 44.0725 33.846 43.9165 33.84 43.3705C33.816 41.1324 33.828 38.8944 33.828 36.6504C33.828 36.3384 33.828 36.0264 33.948 35.7324C34.152 35.2284 34.554 34.9524 35.082 34.9644C35.604 34.9764 36.012 35.2404 36.204 35.7564C36.318 36.0684 36.336 36.4044 36.336 36.7344C36.33 38.7804 36.33 40.8264 36.336 42.8664C36.342 44.1385 36.144 44.0425 37.59 44.0605C38.022 44.0665 38.166 43.8925 38.16 43.4725C38.142 42.1104 38.172 40.7484 38.148 39.3804C38.118 37.5144 38.262 35.6424 38.058 33.7764C37.842 31.7964 36.144 30.0684 34.182 29.8164C32.67 29.6184 31.146 29.7324 29.634 29.7264C28.3499 29.7204 27.0659 29.6364 25.7879 29.8164C23.8979 30.0804 22.1939 31.8264 21.9719 33.7224C21.7499 35.4744 21.9299 37.2264 21.8579 38.6604ZM18.3179 25.3883C17.0699 25.3883 15.8279 25.3763 14.5799 25.3883C13.6558 25.4003 12.8338 25.7483 12.1018 26.2943C10.7098 27.3383 10.1818 28.7904 10.1758 30.4704C10.1638 33.1584 10.1638 35.8404 10.1758 38.5284C10.1818 39.8304 9.96583 39.6684 11.3638 39.7044C11.8498 39.7164 12.0178 39.5484 12.0058 39.0624C11.9878 38.2044 11.9818 37.3464 12.0478 36.4944C12.1138 35.7084 12.6838 35.2224 13.3438 35.2764C14.0159 35.3304 14.4719 35.8644 14.4839 36.6624C14.4959 37.4184 14.5199 38.1804 14.4779 38.9364C14.4419 39.5124 14.6099 39.7344 15.2219 39.7044C16.3319 39.6564 17.4419 39.6924 18.5519 39.6924C19.3679 39.6924 19.3619 39.6924 19.3739 38.8944C19.4039 37.2804 19.3319 35.6664 19.4339 34.0524C19.6199 30.9564 21.7439 28.3224 24.7799 27.4943C25.4279 27.3143 25.4939 27.1223 24.9899 26.6543C24.1859 25.9043 23.2319 25.4183 22.1159 25.3883C20.8499 25.3643 19.5839 25.3883 18.3179 25.3883ZM49.8301 34.4424C49.7641 32.9604 49.9321 31.1484 49.7281 29.3424C49.5061 27.3743 47.5921 25.4543 45.6181 25.4123C42.99 25.3523 40.362 25.3643 37.734 25.4123C36.666 25.4303 35.754 25.9463 34.986 26.6843C34.518 27.1343 34.578 27.3263 35.196 27.4943C38.262 28.3224 40.362 30.9324 40.566 34.1004C40.674 35.7384 40.608 37.3704 40.614 39.0024C40.614 39.5184 40.752 39.7344 41.31 39.7164C42.48 39.6804 43.644 39.6804 44.8141 39.7164C45.3421 39.7344 45.5221 39.5784 45.5161 39.0264C45.4861 36.7704 45.5041 34.5084 45.5041 32.2524C45.5041 32.0184 45.5041 31.7784 45.5521 31.5564C45.6781 30.9684 46.1401 30.5964 46.7101 30.5904C47.2861 30.5844 47.7601 30.9324 47.8981 31.5204C47.9701 31.8204 47.9881 32.1384 47.9881 32.4444C47.9941 34.4664 47.9881 36.4944 47.9941 38.5164C48.0001 39.8544 47.8621 39.6684 49.1821 39.7164C49.7161 39.7344 49.8421 39.5304 49.8301 39.0384C49.8121 37.6104 49.8301 36.1884 49.8301 34.4424ZM21.3419 19.4423C21.3419 19.2683 21.3479 19.0943 21.3419 18.9143C21.2759 17.4743 20.2799 16.2803 18.9539 16.0523C17.4539 15.7883 16.1159 16.5083 15.5159 17.8643C15.2099 18.5543 15.2759 19.2803 15.3059 19.9943C15.3599 21.5543 16.6559 22.8083 18.2219 22.8623C19.7099 22.9163 21.4979 21.7763 21.3419 19.4423ZM38.658 19.6043C38.658 19.6163 38.652 19.7903 38.658 19.9643C38.736 21.5123 39.9 22.7243 41.424 22.8563C42.906 22.9823 44.28 21.9863 44.634 20.5163C44.76 19.9823 44.718 19.4303 44.7001 18.8843C44.6581 17.5883 43.74 16.4363 42.498 16.1063C41.184 15.7523 39.852 16.2623 39.12 17.3663C38.7 18.0083 38.622 18.7103 38.658 19.6043ZM33.012 23.9063C33.012 23.5763 33.03 23.3183 33.012 23.0663C32.91 21.6323 31.608 20.4203 30.12 20.3663C28.6199 20.3123 27.1679 21.4643 27.0179 22.8983C26.8979 24.0443 26.9819 25.1063 27.7199 26.1563C28.5239 27.2963 30.906 27.6863 32.016 26.4503C32.658 25.7303 33.24 24.9143 33.012 23.9063Z" fill="#0092B0"/>
<path d="M51.9121 46.8213C53.1781 46.8213 54.4382 46.8153 55.7042 46.8213C56.5682 46.8273 57.1262 47.3073 57.1262 48.0273C57.1262 48.7473 56.5682 49.2333 55.7042 49.2333C53.7781 49.2393 51.8521 49.2513 49.9261 49.2273C49.3741 49.2213 49.1821 49.3653 49.1941 49.9413C49.2241 51.9033 49.2181 53.8713 49.2001 55.8333C49.1941 56.8293 48.3421 57.4233 47.5081 57.0393C47.0701 56.8413 46.8001 56.4873 46.8001 55.9953C46.7941 53.3313 46.7821 50.6673 46.8061 48.0033C46.8121 47.2833 47.3101 46.8453 48.0661 46.8333C49.3441 46.8153 50.6281 46.8273 51.9121 46.8213Z" fill="#474747"/>
<path d="M50.7601 51.9514C50.7721 51.2734 51.2761 50.7814 51.9541 50.7874C52.6441 50.7934 53.1901 51.3454 53.1601 52.0174C53.1361 52.6594 52.5841 53.1934 51.9421 53.1994C51.2701 53.2054 50.7481 52.6534 50.7601 51.9514Z" fill="#474747"/>
<path d="M13.2479 30.5844C13.9199 30.5724 14.4839 31.1304 14.4779 31.7964C14.4719 32.4384 13.9319 32.9784 13.2839 32.9844C12.6239 32.9904 12.0839 32.4864 12.0599 31.8324C12.0359 31.1544 12.5639 30.5964 13.2479 30.5844Z" fill="#0092B0"/>
</svg>
