<svg width="71" height="71" viewBox="0 0 71 71" fill="none" xmlns="http://www.w3.org/2000/svg">
<path d="M38.015 0.0529785C38.484 0.122979 38.96 0.164979 39.429 0.255979C40.283 0.430979 40.745 1.06798 40.647 1.86598C40.556 2.61498 39.947 3.11198 39.093 3.07698C38.295 3.04898 37.504 2.95798 36.713 2.92298C28.971 2.54498 21.978 4.67998 15.811 9.34198C8.67802 14.746 4.38702 21.921 3.25302 30.776C1.98602 40.751 4.83502 49.543 11.702 56.935C16.917 62.542 23.392 65.888 30.994 66.819C40.92 68.037 49.663 65.237 57.041 58.475C62.424 53.54 65.728 47.408 66.89 40.205C68.269 31.602 66.428 23.685 61.472 16.496C61.409 16.405 61.332 16.328 61.192 16.16C61.143 16.643 61.129 17.042 61.052 17.427C60.891 18.246 60.275 18.715 59.498 18.638C58.763 18.568 58.238 18.008 58.224 17.203C58.203 15.495 58.203 13.794 58.224 12.086C58.238 11.183 58.784 10.658 59.701 10.644C61.388 10.623 63.075 10.63 64.762 10.644C65.679 10.651 66.274 11.232 66.26 12.058C66.253 12.884 65.658 13.444 64.741 13.465C64.16 13.479 63.572 13.465 62.998 13.465C62.949 13.724 63.096 13.829 63.187 13.948C66.995 19.037 69.249 24.742 70.012 31.035C70.054 31.392 70.103 31.756 70.145 32.113C70.145 34.024 70.145 35.935 70.145 37.846C70.005 38.882 69.914 39.925 69.711 40.947C67.352 53.022 60.597 61.73 49.446 66.931C42.95 69.962 36.076 70.662 29.027 69.451C22.517 68.331 16.791 65.545 11.856 61.156C6.41002 56.291 2.79102 50.32 1.04102 43.215C0.621019 41.493 0.39702 39.736 0.14502 37.986C0.14502 35.984 0.14502 33.982 0.14502 31.98C0.29202 30.972 0.40402 29.957 0.58602 28.949C1.74802 22.383 4.54102 16.601 9.01402 11.645C13.851 6.27598 19.794 2.69898 26.829 0.962978C28.579 0.528978 30.357 0.304979 32.135 0.0529785C34.095 0.0529785 36.055 0.0529785 38.015 0.0529785Z" fill="#474747"/>
<path d="M35.1659 58.1953C46.4779 58.2723 56.4809 49.9563 58.1889 38.3013C60.0159 25.7993 51.3499 13.9973 38.8409 12.0023C33.3039 11.1203 28.1029 12.1703 23.2659 14.9913C23.0489 15.1173 22.8389 15.2503 22.6079 15.3553C21.8659 15.6913 21.1029 15.4393 20.7249 14.7603C20.3609 14.1093 20.5289 13.3463 21.1939 12.9053C22.4609 12.0513 23.8329 11.3723 25.2539 10.8053C35.5299 6.72428 46.7859 9.18128 54.3389 17.2453C58.3569 21.5363 60.6669 26.6603 61.1639 32.5263C61.8849 40.9613 59.1619 48.1643 53.0439 54.0093C48.7389 58.1253 43.5309 60.4493 37.5809 60.9533C29.1529 61.6603 21.9499 58.9583 16.1119 52.8753C12.0099 48.6053 9.69291 43.4323 9.11891 37.5243C8.55191 31.7213 9.8259 26.3243 12.8359 21.3333C13.0879 20.9133 13.3819 20.5493 13.8859 20.4163C14.4809 20.2623 14.9779 20.4653 15.3489 20.9133C15.7479 21.4033 15.7549 21.9703 15.4679 22.5163C15.0549 23.3003 14.5929 24.0563 14.2009 24.8543C10.0779 33.2053 11.6109 43.7823 17.9389 50.6143C22.5729 55.6263 28.3479 58.1043 35.1659 58.1953Z" fill="#474747"/>
<path d="M30.3359 34.9824C30.3849 34.3594 30.4619 33.8134 30.6859 33.3164C30.8819 32.8894 30.7629 32.6164 30.4479 32.3084C29.0969 30.9924 27.7599 29.6554 26.4369 28.3114C25.7999 27.6674 25.7369 26.8834 26.2339 26.2884C26.8149 25.5954 27.7319 25.5744 28.4529 26.2744C29.7689 27.5624 31.0779 28.8644 32.3659 30.1804C32.7369 30.5584 33.0449 30.7334 33.5979 30.4954C34.6199 30.0614 35.6979 30.0754 36.7269 30.5024C37.2449 30.7194 37.5459 30.5794 37.9099 30.2154C40.6959 27.4084 43.5029 24.6154 46.3099 21.8224C46.5059 21.6334 46.6949 21.4304 46.9259 21.2834C47.5139 20.8984 48.1789 20.9824 48.6759 21.4654C49.1729 21.9484 49.2709 22.6134 48.8929 23.2084C48.7389 23.4534 48.5219 23.6634 48.3119 23.8734C45.5469 26.6384 42.7819 29.4104 39.9959 32.1544C39.5689 32.5744 39.4569 32.9034 39.6669 33.5054C40.3249 35.4444 39.8279 37.1734 38.3229 38.5174C36.7969 39.8824 34.9839 40.1484 33.1079 39.2734C31.2739 38.4264 30.4549 36.8724 30.3359 34.9824ZM35.1729 36.8584C36.2019 36.8444 37.0279 35.9974 37.0209 34.9684C37.0139 33.9114 36.1459 33.0784 35.0749 33.1134C34.0529 33.1414 33.2409 34.0024 33.2619 35.0314C33.2899 36.0534 34.1439 36.8724 35.1729 36.8584Z" fill="#0092B0"/>
<path d="M36.5381 53.5401C36.5381 53.8761 36.5661 54.2191 36.5311 54.5551C36.4541 55.2691 35.8591 55.7941 35.1521 55.8151C34.4801 55.8361 33.8781 55.3741 33.7381 54.6811C33.5911 53.9391 33.5911 53.1901 33.7311 52.4551C33.8781 51.7061 34.4381 51.2861 35.1941 51.3141C35.9221 51.3421 36.4751 51.8461 36.5451 52.5881C36.5661 52.9031 36.5451 53.2181 36.5381 53.5401Z" fill="#0092B0"/>
<path d="M33.745 16.3835C33.745 16.0685 33.717 15.7465 33.752 15.4315C33.829 14.7175 34.403 14.1855 35.117 14.1505C35.789 14.1155 36.405 14.5775 36.545 15.2635C36.699 16.0265 36.706 16.7965 36.545 17.5595C36.398 18.2735 35.789 18.7005 35.047 18.6515C34.354 18.6095 33.822 18.1055 33.752 17.3985C33.717 17.0625 33.745 16.7195 33.745 16.3835Z" fill="#0092B0"/>
<path d="M16.497 36.3755C16.182 36.3755 15.86 36.4035 15.545 36.3685C14.831 36.2915 14.299 35.7105 14.271 35.0035C14.243 34.3385 14.705 33.7155 15.391 33.5825C16.154 33.4285 16.931 33.4285 17.687 33.5825C18.401 33.7295 18.828 34.3455 18.779 35.0875C18.73 35.7805 18.233 36.3055 17.519 36.3755C17.183 36.4035 16.84 36.3825 16.497 36.3755Z" fill="#0092B0"/>
<path d="M53.772 33.5976C54.115 33.5976 54.458 33.5626 54.787 33.6046C55.473 33.6886 55.977 34.2626 55.998 34.9486C56.026 35.6416 55.592 36.2436 54.899 36.3836C54.136 36.5376 53.366 36.5376 52.603 36.3906C51.882 36.2506 51.455 35.6416 51.497 34.8996C51.539 34.2066 52.036 33.6676 52.743 33.5976C53.093 33.5626 53.436 33.5906 53.772 33.5976Z" fill="#0092B0"/>
<path d="M43.1809 2.72011C43.2019 1.93611 43.8529 1.34111 44.6719 1.36211C45.4489 1.38311 46.0369 1.99911 46.0229 2.77611C46.0159 3.57411 45.3719 4.19711 44.5739 4.18311C43.7899 4.16911 43.1599 3.51111 43.1809 2.72011Z" fill="#474747"/>
<path d="M19.059 17.5315C19.059 18.3505 18.457 18.9385 17.631 18.9315C16.847 18.9245 16.252 18.3365 16.238 17.5595C16.224 16.7545 16.833 16.1245 17.638 16.1175C18.45 16.1105 19.059 16.7195 19.059 17.5315Z" fill="#474747"/>
</svg>
