<svg width="61" height="60" viewBox="0 0 61 60" fill="none" xmlns="http://www.w3.org/2000/svg">
<g clip-path="url(#clip0_153_2715)">
<path d="M30.1633 7.72646C30.7453 7.72646 31.3273 7.72646 31.9153 7.72646C34.8613 7.73846 37.0633 9.93446 37.0813 12.8625C37.0873 13.8465 37.0993 14.8305 37.0753 15.8145C37.0633 16.2345 37.1773 16.4505 37.6273 16.5765C39.9133 17.2425 41.3053 19.1145 41.3053 21.4965C41.3113 27.1185 41.3113 32.7345 41.3053 38.3565C41.3053 40.4865 40.3273 42.0405 38.4253 42.9885C38.0413 43.1805 37.9033 43.4085 37.9153 43.8225C37.9453 44.6025 37.9273 45.3885 37.9213 46.1685C37.9153 47.9625 36.7033 49.2405 34.9993 49.2465C33.2653 49.2525 32.0533 47.9745 32.0473 46.1385C32.0473 45.4365 32.0293 44.7345 32.0533 44.0325C32.0653 43.6305 31.9453 43.4505 31.5073 43.4565C30.4393 43.4805 29.3773 43.4745 28.3093 43.4565C27.9193 43.4505 27.7693 43.5885 27.7813 43.9845C27.7993 44.7645 27.7933 45.5505 27.7813 46.3305C27.7573 47.9985 26.4853 49.2525 24.8173 49.2405C23.1913 49.2345 21.9313 47.9745 21.9133 46.3305C21.9013 45.3885 21.9013 44.4465 21.9193 43.4985C21.9253 43.1565 21.8053 42.9585 21.5053 42.7785C19.8493 41.7645 19.0093 40.2825 19.0093 38.3325C19.0153 32.7345 19.0093 27.1365 19.0153 21.5325C19.0153 19.1025 20.3833 17.2545 22.7113 16.5645C23.1193 16.4445 23.2513 16.2585 23.2453 15.8505C23.2273 14.8065 23.2333 13.7625 23.2393 12.7185C23.2633 9.98246 25.4953 7.75046 28.2373 7.72046C28.8793 7.72046 29.5213 7.72646 30.1633 7.72646ZM39.2893 29.9385C39.2893 27.2505 39.2893 24.5625 39.2893 21.8745C39.2893 19.6185 38.0833 18.4185 35.8213 18.4125C32.0413 18.4065 28.2613 18.4065 24.4813 18.4125C22.2433 18.4125 21.0313 19.6125 21.0313 21.8265C21.0253 27.2265 21.0253 32.6205 21.0313 38.0205C21.0313 40.2285 22.2493 41.4465 24.4693 41.4525C28.2673 41.4585 32.0713 41.4585 35.8693 41.4525C38.0773 41.4465 39.2893 40.2225 39.2893 38.0025C39.2893 35.3145 39.2893 32.6265 39.2893 29.9385ZM30.1573 16.3965C31.6033 16.3965 33.0493 16.3905 34.4953 16.4025C34.8433 16.4025 35.0713 16.3485 35.0653 15.9165C35.0473 14.8965 35.0953 13.8705 35.0473 12.8505C34.9693 11.1165 33.9613 9.98846 32.2273 9.79646C30.8533 9.64646 29.4493 9.64646 28.0753 9.79646C26.3053 9.99446 25.2973 11.1825 25.2553 12.9765C25.2313 13.9185 25.2733 14.8605 25.2373 15.8025C25.2193 16.3005 25.4173 16.4145 25.8733 16.4085C27.3073 16.3845 28.7353 16.3965 30.1573 16.3965ZM25.7593 45.0585H25.7653C25.7653 44.6805 25.7653 44.2965 25.7653 43.9185C25.7653 43.7085 25.7533 43.4925 25.4773 43.4805C25.0573 43.4685 24.6373 43.4685 24.2113 43.4805C23.9773 43.4865 23.9233 43.6605 23.9233 43.8585C23.9233 44.6625 23.8993 45.4605 23.9413 46.2645C23.9653 46.8345 24.3673 47.2125 24.8473 47.2125C25.3213 47.2125 25.7053 46.8345 25.7533 46.2645C25.7893 45.8625 25.7593 45.4605 25.7593 45.0585ZM35.9053 45.0765C35.9053 44.6985 35.9053 44.3145 35.9113 43.9365C35.9173 43.6605 35.8393 43.4205 35.5153 43.4805C35.0353 43.5645 34.4773 43.2045 34.0813 43.7265C34.0513 43.7685 34.0633 43.8465 34.0633 43.9065C34.0633 44.6685 34.0453 45.4305 34.0693 46.1925C34.0933 46.8045 34.4653 47.2065 34.9633 47.2125C35.4793 47.2245 35.8633 46.8105 35.8933 46.1625C35.9233 45.7965 35.9053 45.4365 35.9053 45.0765Z" fill="#0092B0"/>
<path d="M51.5413 12.0702C51.6013 13.0782 51.6493 13.9722 51.7093 14.8602C51.7573 15.5622 51.8293 16.2582 51.8653 16.9602C51.9013 17.5962 51.4753 18.1062 50.9173 18.1482C50.3113 18.1962 49.8493 17.7582 49.8013 17.0682C49.6093 14.3862 49.4173 11.7102 49.2373 9.02825C49.1773 8.17025 49.7893 7.62425 50.6173 7.85225C53.2573 8.56025 55.8853 9.29825 58.5133 10.0482C59.1793 10.2402 59.4673 10.7682 59.2993 11.3262C59.1253 11.9022 58.6333 12.1842 57.9613 12.0102C56.4073 11.6022 54.8653 11.1582 53.1733 10.6902C53.3833 10.9662 53.5153 11.1462 53.6533 11.3202C57.1993 15.7902 59.3713 20.8602 59.9593 26.5182C60.8833 35.4162 58.3873 43.2942 52.4053 49.9722C47.6173 55.3182 41.5873 58.4982 34.4893 59.5542C29.1073 60.3522 23.8693 59.7042 18.8173 57.6522C18.7633 57.6282 18.7093 57.6042 18.6493 57.5802C17.9593 57.2682 17.7073 56.7762 17.9353 56.2062C18.1633 55.6302 18.7033 55.4202 19.3873 55.6722C20.3653 56.0382 21.3433 56.4042 22.3453 56.7042C24.7693 57.4242 27.2593 57.8142 29.7733 57.8202C36.7693 57.8322 43.0153 55.6602 48.3433 51.0762C53.4433 46.6962 56.6113 41.1702 57.6793 34.5402C59.0053 26.2902 57.0013 18.8682 51.7933 12.3162C51.7573 12.2562 51.6913 12.2142 51.5413 12.0702Z" fill="#474747"/>
<path d="M7.06919 49.2344C5.39519 47.0324 3.97319 44.7644 2.83919 42.3044C0.721192 37.7024 -0.154807 32.8544 0.229193 27.8264C0.847193 19.7084 4.28519 12.9404 10.3092 7.45637C12.5112 5.45237 14.8572 3.68837 17.6532 2.59037C18.1392 2.39837 18.6372 2.24237 19.1472 2.11637C19.7532 1.96637 20.2692 2.27237 20.4192 2.82437C20.5632 3.35237 20.3052 3.84437 19.7352 4.06037C11.5692 7.19837 6.31919 13.1924 3.65519 21.2924C0.535193 30.8024 2.33519 39.6224 8.50319 47.5364C8.55119 47.5964 8.57519 47.6804 8.67119 47.7164C8.75519 46.9844 8.55119 46.3184 8.46119 45.6404C8.34719 44.8064 8.19119 43.9784 8.05919 43.1444C8.01719 42.8684 7.98719 42.5804 8.08319 42.3104C8.24519 41.8604 8.59319 41.6204 9.04919 41.6324C9.55919 41.6504 9.93119 41.9384 10.0212 42.4604C10.2312 43.6244 10.4232 44.7944 10.6092 45.9584C10.8492 47.4224 11.0832 48.8864 11.3172 50.3504C11.5032 51.5144 10.9752 52.0484 9.82319 51.8444C7.25519 51.3824 4.68119 50.9084 2.11319 50.4344C1.37519 50.2964 1.01519 49.8164 1.14119 49.1744C1.25519 48.6044 1.74719 48.3104 2.43719 48.4124C2.65319 48.4424 2.87519 48.4844 3.09119 48.5204C4.42919 48.7664 5.74919 49.0004 7.06919 49.2344Z" fill="#474747"/>
<path d="M31.2131 0.0163574C34.7831 0.136357 38.2211 0.868357 41.5271 2.21836C41.8031 2.33236 42.0911 2.44636 42.2651 2.71036C42.5231 3.10636 42.5351 3.50836 42.2471 3.88636C41.9471 4.28236 41.5331 4.40836 41.0651 4.24036C40.0991 3.89836 39.1511 3.51436 38.1671 3.22036C35.5691 2.44036 32.9111 2.11036 30.2111 2.02636C29.5571 2.00836 29.1611 1.61836 29.1551 1.03636C29.1491 0.424357 29.5631 0.0403574 30.2471 0.0163574C30.3251 0.0163574 30.4091 0.0163574 30.4871 0.0163574C30.7271 0.0163574 30.9671 0.0163574 31.2131 0.0163574Z" fill="#474747"/>
<path d="M22.8973 0.9104C23.4613 0.9104 23.9233 1.3844 23.9113 1.9604C23.8993 2.5184 23.4733 2.9624 22.9273 2.9744C22.3693 2.9864 21.8773 2.5184 21.8653 1.9604C21.8593 1.4084 22.3453 0.9104 22.8973 0.9104Z" fill="#474747"/>
<path d="M27.5471 1.15037C27.5351 1.73837 27.0911 2.15837 26.5031 2.14037C25.9451 2.12237 25.5371 1.69637 25.5371 1.13237C25.5371 0.532367 25.9571 0.106367 26.5511 0.112367C27.1391 0.118367 27.5531 0.550367 27.5471 1.15037Z" fill="#474747"/>
<path d="M25.3693 29.4465C25.3693 31.6545 25.3633 33.8565 25.3753 36.0645C25.3753 36.5025 25.2493 36.8565 24.8533 37.0725C24.5113 37.2585 24.1573 37.2525 23.8213 37.0425C23.4853 36.8325 23.3533 36.5145 23.3533 36.1245C23.3593 31.6725 23.3533 27.2205 23.3593 22.7745C23.3593 22.0965 23.7793 21.6885 24.3913 21.7005C24.9733 21.7125 25.3633 22.1145 25.3633 22.7685C25.3753 25.0005 25.3693 27.2265 25.3693 29.4465Z" fill="#0092B0"/>
<path d="M29.1492 29.3982C29.1492 27.1902 29.1372 24.9882 29.1552 22.7802C29.1612 21.8982 29.9952 21.4062 30.6912 21.8442C31.0212 22.0542 31.1652 22.3662 31.1652 22.7622C31.1652 27.2142 31.1652 31.6662 31.1592 36.1122C31.1592 36.7902 30.7452 37.2042 30.1332 37.1922C29.5332 37.1802 29.1552 36.7722 29.1492 36.0702C29.1432 33.8502 29.1492 31.6242 29.1492 29.3982Z" fill="#0092B0"/>
<path d="M36.9552 29.4522C36.9552 31.6782 36.9552 33.9042 36.9552 36.1302C36.9552 36.6282 36.7452 36.9942 36.2712 37.1502C35.8572 37.2882 35.4792 37.1922 35.1792 36.8562C34.9932 36.6462 34.9392 36.4002 34.9392 36.1302C34.9392 31.6782 34.9392 27.2262 34.9452 22.7802C34.9452 22.1022 35.3652 21.6942 35.9772 21.7122C36.5592 21.7242 36.9492 22.1262 36.9492 22.7802C36.9612 25.0002 36.9552 27.2262 36.9552 29.4522Z" fill="#0092B0"/>
</g>
<defs>
<clipPath id="clip0_153_2715">
<rect width="60" height="59.874" fill="white" transform="translate(0.145264 0.0163574)"/>
</clipPath>
</defs>
</svg>
