<svg width="31" height="31" viewBox="0 0 31 31" fill="none" xmlns="http://www.w3.org/2000/svg">
<path d="M23.5773 0.732422H6.81814C3.18204 0.732422 0.169403 3.67019 0.169403 7.28936V24.0442C0.169403 27.6794 3.18204 30.6622 6.81814 30.6622H23.5773C27.2134 30.6622 30.1069 27.6794 30.1069 24.0442V7.28936C30.1069 3.67019 27.2134 0.732422 23.5773 0.732422Z" fill="#FEFEFE"/>
<path fill-rule="evenodd" clip-rule="evenodd" d="M6.81814 0.553711H23.5773C27.2134 0.553711 30.1694 3.52489 30.1694 7.14407V23.8989C30.1694 27.5341 27.2134 30.5038 23.5773 30.5038H6.81814C3.18204 30.5038 0.226074 27.5326 0.226074 23.8989V7.14407C0.226074 3.52489 3.18204 0.553711 6.81814 0.553711Z" fill="url(#paint0_linear_1_8913)"/>
<path d="M7.74057 20.2713C9.08646 21.1352 10.6909 21.6407 12.413 21.6407C18.0727 21.6407 21.2641 16.8625 21.076 12.578C21.6696 12.1489 22.1868 11.6141 22.5982 11.0029C22.0516 11.2438 21.4639 11.4084 20.8468 11.4848C21.4757 11.1087 21.9576 10.5092 22.1868 9.79804C21.5991 10.1448 20.9467 10.4034 20.2532 10.5386C19.6949 9.94497 18.9073 9.57471 18.0316 9.57471C16.0627 9.57471 14.6169 11.4084 15.0636 13.3185C12.5305 13.1892 10.2854 11.9785 8.78084 10.133C7.98154 11.5024 8.36943 13.295 9.7212 14.2001C9.22163 14.1825 8.75145 14.0473 8.34005 13.8181C8.30478 15.2286 9.32155 16.551 10.785 16.8448C10.3559 16.9624 9.88576 16.9859 9.4097 16.8977C9.7976 18.1084 10.9202 18.99 12.2543 19.0135C10.9672 20.0127 9.35681 20.4652 7.74057 20.2713Z" fill="white"/>
<defs>
<linearGradient id="paint0_linear_1_8913" x1="15.1976" y1="0.223685" x2="15.1976" y2="28.8517" gradientUnits="userSpaceOnUse">
<stop stop-color="#29A9E1"/>
<stop offset="1" stop-color="#1095CF"/>
</linearGradient>
</defs>
</svg>
